<?xml version="1.0" encoding="utf-8"?>
<!-- Generator: Adobe Illustrator 25.2.3, SVG Export Plug-In . SVG Version: 6.00 Build 0)  -->
<svg version="1.1" id="Calque_1" xmlns="http://www.w3.org/2000/svg" xmlns:xlink="http://www.w3.org/1999/xlink" x="0px" y="0px"
	 viewBox="0 0 32 32" style="enable-background:new 0 0 32 32;" xml:space="preserve">
<style type="text/css">
	.st0{fill:#6CFFCA;}
</style>
<path class="st0" d="M21.9,25.5L6.5,10.1c-1-1-1-2.7,0-3.7l0,0c1-1,2.7-1,3.7,0l15.4,15.4c1,1,1,2.7,0,3.7l0,0
	C24.5,26.5,22.9,26.5,21.9,25.5z"/>
<path class="st0" d="M25.5,10.1L10.1,25.5c-1,1-2.7,1-3.7,0l0,0c-1-1-1-2.7,0-3.7L21.9,6.5c1-1,2.7-1,3.7,0l0,0
	C26.5,7.5,26.5,9.1,25.5,10.1z"/>
</svg>
