<?xml version="1.0" encoding="utf-8"?>
<!-- Generator: Adobe Illustrator 25.2.3, SVG Export Plug-In . SVG Version: 6.00 Build 0)  -->
<svg version="1.1" id="Calque_1" xmlns="http://www.w3.org/2000/svg" xmlns:xlink="http://www.w3.org/1999/xlink" x="0px" y="0px"
	 viewBox="0 0 383.7 35.3" style="enable-background:new 0 0 383.7 35.3;" xml:space="preserve">
<style type="text/css">
	.st0{stroke:#6CFFCA;stroke-width:0.7353;stroke-miterlimit:10;}
</style>
<g>
	<path class="st0" d="M7,6.7C6.9,6.7,6.7,6.9,6.7,7v21.2c0,0.2,0.1,0.3,0.3,0.3h27.8V35H7c-3.7,0-6.7-3-6.7-6.7V7
		c0-3.7,3-6.7,6.7-6.7h27.8v6.3H7z"/>
	<path class="st0" d="M67.7,0.4c3.7,0,6.7,3,6.7,6.7v21.2c0,3.7-3,6.7-6.7,6.7H46.5c-3.7,0-6.7-3-6.7-6.7V7c0-3.7,3-6.7,6.7-6.7
		H67.7z M67.7,28.6c0.1,0,0.3-0.1,0.3-0.3V7c0-0.2-0.1-0.3-0.3-0.3H46.5c-0.2,0-0.3,0.1-0.3,0.3v21.2c0,0.2,0.1,0.3,0.3,0.3H67.7z"
		/>
	<path class="st0" d="M111.7,0.4h7V35h-6.4V9.6L99.2,25.2L86,9.6V35h-6.3V0.4h6.9l12.6,15L111.7,0.4z"/>
	<path class="st0" d="M124.3,0.4h6.3V35h-6.3V0.4z"/>
	<path class="st0" d="M163.1,0.4h6.4V35h-6.9L141.2,9.6V35h-6.3V0.4h6.9l21.3,25.4V0.4z"/>
	<path class="st0" d="M209.5,9.7h-6.4V7c0-0.2-0.1-0.3-0.3-0.3h-21.2c-0.2,0-0.3,0.1-0.3,0.3v21.2c0,0.2,0.1,0.3,0.3,0.3h21.2
		c0.2,0,0.3-0.1,0.3-0.3v-6.5h-7.8v-6.3h14.2v12.9c0,3.7-3,6.7-6.7,6.7h-21.2c-3.7,0-6.7-3-6.7-6.7V7c0-3.7,3-6.7,6.7-6.7h21.2
		c3.7,0,6.7,3,6.7,6.7V9.7z"/>
	<path class="st0" d="M263.9,9.7h-6.4V7c0-0.2-0.1-0.3-0.3-0.3H236c-0.2,0-0.3,0.1-0.3,0.3v7.1c0,0.2,0.1,0.3,0.3,0.3h21.2
		c3.7,0,6.7,3,6.7,6.7v7.1c0,3.7-3,6.7-6.7,6.7H236c-3.7,0-6.7-3-6.7-6.7v-2.6h6.3v2.6c0,0.2,0.1,0.3,0.3,0.3h21.2
		c0.1,0,0.3-0.1,0.3-0.3v-7.1c0-0.2-0.1-0.3-0.3-0.3H236c-3.7,0-6.7-3-6.7-6.7V7c0-3.7,3-6.7,6.7-6.7h21.2c3.7,0,6.7,3,6.7,6.7V9.7z
		"/>
	<path class="st0" d="M296.9,0.4c3.7,0,6.7,3,6.7,6.7v21.2c0,3.7-3,6.7-6.7,6.7h-21.2c-3.7,0-6.7-3-6.7-6.7V7c0-3.7,3-6.7,6.7-6.7
		H296.9z M296.9,28.6c0.1,0,0.3-0.1,0.3-0.3V7c0-0.2-0.1-0.3-0.3-0.3h-21.2c-0.2,0-0.3,0.1-0.3,0.3v21.2c0,0.2,0.1,0.3,0.3,0.3
		H296.9z"/>
	<path class="st0" d="M336.7,0.4c3.7,0,6.7,3,6.7,6.7v21.2c0,3.7-3,6.7-6.7,6.7h-21.2c-3.7,0-6.7-3-6.7-6.7V7c0-3.7,3-6.7,6.7-6.7
		H336.7z M336.7,28.6c0.1,0,0.3-0.1,0.3-0.3V7c0-0.2-0.1-0.3-0.3-0.3h-21.2c-0.2,0-0.3,0.1-0.3,0.3v21.2c0,0.2,0.1,0.3,0.3,0.3
		H336.7z"/>
	<path class="st0" d="M376.9,0.4h6.4V35h-6.9L355,9.6V35h-6.3V0.4h6.9l21.3,25.4V0.4z"/>
</g>
</svg>
