<?xml version="1.0" encoding="utf-8"?>
<!-- Generator: Adobe Illustrator 27.7.0, SVG Export Plug-In . SVG Version: 6.00 Build 0)  -->
<svg version="1.1" id="Calque_1" xmlns="http://www.w3.org/2000/svg" xmlns:xlink="http://www.w3.org/1999/xlink" x="0px" y="0px"
	 viewBox="0 0 147.5 149.3" style="enable-background:new 0 0 147.5 149.3;" xml:space="preserve">
<style type="text/css">
	.st0{fill:#220C3D;}
	.st1{fill:#D900FF;}
</style>
<path class="st0" d="M73.7,0C46.5,0,22.6,14.6,9.6,36.4c-0.4,7.3-1,15.1,1.5,15.9c3.7,1.2,9-15.7,19.3-16c5.1-0.1,9.7,3.8,10.7,4.7
	c5.7,4.9,4.7,9.8,8.7,11.3c4.5,1.8,12.3-2.2,14.7-8c3.8-9.5-8.8-19.8-5.3-24c2.4-2.9,11.6-1.8,15.3,3.3c5.1,7-4.2,15.9,0.7,26.7
	c2.6,5.7,8.7,10.9,13.3,10c6.7-1.4,5.6-14.5,14-17.3c4.8-1.6,11.5,0.7,13.3,4.7c2.7,5.8-6.7,11.4-4.7,19.3
	c1.7,6.7,10.8,12.1,15.3,10c6.2-2.9,1.3-18.3,7.3-21.3c3.9-1.9,8.6,3.1,13.7,7.3C141.8,27.3,111,0,73.7,0z"/>
<path class="st0" d="M73.7,149.3c27.3,0,51.1-14.6,64.1-36.4c0.4-7.3,1-15.1-1.5-15.9c-3.7-1.2-9,15.7-19.3,16
	c-5.1,0.1-9.7-3.8-10.7-4.7c-5.7-4.9-4.7-9.8-8.7-11.3c-4.5-1.8-12.3,2.2-14.7,8c-3.8,9.5,8.8,19.8,5.3,24
	c-2.4,2.9-11.6,1.8-15.3-3.3c-5.1-7,4.2-15.9-0.7-26.7C69.8,93.3,63.7,88,59,89c-6.7,1.4-5.6,14.5-14,17.3
	c-4.8,1.6-11.5-0.7-13.3-4.7c-2.7-5.8,6.7-11.4,4.7-19.3c-1.7-6.7-10.8-12.1-15.3-10c-6.2,2.9-1.3,18.3-7.3,21.3
	C9.8,95.6,5.1,90.5,0,86.4C5.6,122,36.5,149.3,73.7,149.3z"/>
<g>
	<path class="st1" d="M98.3,52.1c-4.5-2.1-9.4-3.6-14.5-4.5c-0.1,0-0.2,0-0.2,0.1c-0.6,1.1-1.3,2.6-1.8,3.7
		c-5.5-0.8-10.9-0.8-16.2,0c-0.5-1.2-1.2-2.6-1.8-3.7c0-0.1-0.1-0.1-0.2-0.1c-5.1,0.9-9.9,2.4-14.5,4.5c0,0-0.1,0-0.1,0.1
		c-9.2,13.8-11.7,27.2-10.5,40.4c0,0.1,0,0.1,0.1,0.2c6.1,4.5,12,7.2,17.7,9c0.1,0,0.2,0,0.2-0.1c1.4-1.9,2.6-3.8,3.6-5.9
		c0.1-0.1,0-0.3-0.1-0.3c-1.9-0.7-3.8-1.6-5.5-2.6c-0.1-0.1-0.2-0.3,0-0.4c0.4-0.3,0.7-0.6,1.1-0.9c0.1-0.1,0.2-0.1,0.2,0
		c11.6,5.3,24.2,5.3,35.7,0c0.1,0,0.2,0,0.2,0c0.4,0.3,0.7,0.6,1.1,0.9c0.1,0.1,0.1,0.3,0,0.4c-1.8,1-3.6,1.9-5.5,2.6
		c-0.1,0-0.2,0.2-0.1,0.3c1.1,2.1,2.3,4,3.6,5.9c0.1,0.1,0.2,0.1,0.2,0.1c5.8-1.8,11.7-4.5,17.8-9c0.1,0,0.1-0.1,0.1-0.2
		C110.4,77.3,106.4,64,98.3,52.1C98.4,52.1,98.4,52.1,98.3,52.1z M62,84.5c-3.5,0-6.4-3.2-6.4-7.2c0-3.9,2.8-7.2,6.4-7.2
		c3.6,0,6.4,3.2,6.4,7.2C68.3,81.3,65.5,84.5,62,84.5z M85.5,84.5c-3.5,0-6.4-3.2-6.4-7.2c0-3.9,2.8-7.2,6.4-7.2
		c3.6,0,6.4,3.2,6.4,7.2C91.9,81.3,89.1,84.5,85.5,84.5z"/>
</g>
</svg>
