<?xml version="1.0" encoding="utf-8"?>
<!-- Generator: Adobe Illustrator 25.2.3, SVG Export Plug-In . SVG Version: 6.00 Build 0)  -->
<svg version="1.1" id="Calque_1" xmlns="http://www.w3.org/2000/svg" xmlns:xlink="http://www.w3.org/1999/xlink" x="0px" y="0px"
	 viewBox="0 0 25 25" style="enable-background:new 0 0 25 25;" xml:space="preserve">
<style type="text/css">
	.st0{fill:#53EBC2;}
</style>
<path class="st0" d="M12.5,16.9c1.2,0,2.2-0.4,3-1.2c0.8-0.8,1.2-1.8,1.2-3c0-1.2-0.4-2.2-1.2-3c-0.8-0.8-1.8-1.2-3-1.2
	c-1.2,0-2.2,0.4-3,1.2c-0.8,0.8-1.2,1.8-1.2,3c0,1.2,0.4,2.2,1.2,3C10.3,16.5,11.3,16.9,12.5,16.9z M12.5,15.4c-0.8,0-1.4-0.3-2-0.8
	c-0.5-0.5-0.8-1.2-0.8-2c0-0.8,0.3-1.4,0.8-2c0.5-0.5,1.2-0.8,2-0.8c0.8,0,1.4,0.3,2,0.8c0.5,0.5,0.8,1.2,0.8,2c0,0.8-0.3,1.4-0.8,2
	C14,15.1,13.3,15.4,12.5,15.4z M12.5,20.1c-2.4,0-4.7-0.7-6.6-2.1s-3.4-3.2-4.4-5.4c1-2.2,2.4-4.1,4.4-5.4s4.2-2.1,6.6-2.1
	s4.7,0.7,6.6,2.1s3.4,3.2,4.4,5.4c-1,2.2-2.4,4.1-4.4,5.4S15,20.1,12.5,20.1z M12.5,18.6c2,0,3.9-0.5,5.6-1.6s3-2.6,3.9-4.4
	c-0.9-1.8-2.2-3.3-3.9-4.4c-1.7-1.1-3.6-1.6-5.6-1.6c-2,0-3.9,0.5-5.6,1.6s-3,2.6-3.9,4.4c0.9,1.8,2.2,3.3,3.9,4.4
	C8.6,18.1,10.5,18.6,12.5,18.6z"/>
</svg>
