<?xml version="1.0" encoding="utf-8"?>
<!-- Generator: Adobe Illustrator 25.2.3, SVG Export Plug-In . SVG Version: 6.00 Build 0)  -->
<svg version="1.1" xmlns="http://www.w3.org/2000/svg" xmlns:xlink="http://www.w3.org/1999/xlink" x="0px" y="0px"
	 viewBox="0 0 297.4 63.3" style="enable-background:new 0 0 297.4 63.3;" xml:space="preserve">
<style type="text/css">
	.st0{fill:url(#SVGID_1_);stroke:url(#SVGID_2_);stroke-width:0.5665;stroke-miterlimit:10;}
	.st1{fill:url(#SVGID_3_);stroke:url(#SVGID_4_);stroke-width:0.5665;stroke-miterlimit:10;}
	.st2{fill:url(#SVGID_5_);stroke:url(#SVGID_6_);stroke-width:0.5665;stroke-miterlimit:10;}
	.st3{fill:url(#SVGID_7_);stroke:url(#SVGID_8_);stroke-width:0.5665;stroke-miterlimit:10;}
	.st4{fill:url(#SVGID_9_);stroke:url(#SVGID_10_);stroke-width:0.5665;stroke-miterlimit:10;}
	.st5{fill:url(#SVGID_11_);stroke:url(#SVGID_12_);stroke-width:0.5665;stroke-miterlimit:10;}
	.st6{fill:url(#SVGID_13_);stroke:url(#SVGID_14_);stroke-width:0.5665;stroke-miterlimit:10;}
	.st7{fill:url(#SVGID_15_);stroke:url(#SVGID_16_);stroke-width:0.5665;stroke-miterlimit:10;}
	.st8{fill:#001E18;}
	.st9{fill:#000C0A;}
	.st10{opacity:0.19;fill:none;stroke:url(#SVGID_17_);stroke-width:0.2286;stroke-miterlimit:10;}
	.st11{opacity:0.26;}
	.st12{fill:url(#SVGID_18_);}
	.st13{fill:url(#SVGID_19_);}
	.st14{opacity:0.64;}
	.st15{fill:url(#SVGID_20_);}
	.st16{fill:url(#SVGID_21_);}
	.st17{fill:url(#SVGID_22_);}
	.st18{fill:url(#SVGID_23_);}
	.st19{fill:url(#SVGID_24_);}
	.st20{fill:url(#SVGID_25_);}
	.st21{fill:#1D7060;}
</style>
<g id="Calque_2">
</g>
<g id="Calque_1">
	<linearGradient id="SVGID_1_" gradientUnits="userSpaceOnUse" x1="73.9934" y1="31.6535" x2="102.7467" y2="31.6535">
		<stop  offset="0" style="stop-color:#00130F"/>
		<stop  offset="0.5" style="stop-color:#00483B"/>
	</linearGradient>
	<linearGradient id="SVGID_2_" gradientUnits="userSpaceOnUse" x1="73.7102" y1="31.6535" x2="103.0299" y2="31.6535">
		<stop  offset="0" style="stop-color:#1D5D48"/>
		<stop  offset="1" style="stop-color:#BBFCF9"/>
	</linearGradient>
	<path class="st0" d="M102.7,30.1v2.4c0,4.2-1.3,7.5-3.9,10c-2.6,2.5-5.9,3.7-9.8,3.7c-4.3,0-7.9-1.4-10.8-4.2
		c-2.9-2.8-4.3-6.2-4.3-10.3s1.4-7.5,4.2-10.3c2.8-2.8,6.3-4.2,10.4-4.2c2.6,0,5,0.6,7.1,1.7c2.2,1.2,3.8,2.7,5,4.6l-5.4,3.1
		c-0.6-1-1.5-1.7-2.7-2.3c-1.2-0.6-2.6-0.9-4.1-0.9c-2.4,0-4.3,0.8-5.9,2.3c-1.6,1.6-2.3,3.6-2.3,6c0,2.4,0.8,4.4,2.4,5.9
		c1.6,1.5,3.7,2.3,6.4,2.3c3.7,0,6.1-1.4,7.1-4.3h-7.4v-5.6H102.7z"/>
	<linearGradient id="SVGID_3_" gradientUnits="userSpaceOnUse" x1="166.5787" y1="31.6535" x2="187.2589" y2="31.6535">
		<stop  offset="0" style="stop-color:#00130F"/>
		<stop  offset="0.5" style="stop-color:#00483B"/>
	</linearGradient>
	<linearGradient id="SVGID_4_" gradientUnits="userSpaceOnUse" x1="166.2954" y1="31.6535" x2="187.5421" y2="31.6535">
		<stop  offset="0" style="stop-color:#1D5D48"/>
		<stop  offset="1" style="stop-color:#BBFCF9"/>
	</linearGradient>
	<path class="st1" d="M187.3,17.7v6.1h-7.2v21.7h-6.4V23.9h-7.2v-6.1H187.3z"/>
	<linearGradient id="SVGID_5_" gradientUnits="userSpaceOnUse" x1="105.6532" y1="31.6535" x2="127.1284" y2="31.6535">
		<stop  offset="0" style="stop-color:#00130F"/>
		<stop  offset="0.5" style="stop-color:#00483B"/>
	</linearGradient>
	<linearGradient id="SVGID_6_" gradientUnits="userSpaceOnUse" x1="105.3699" y1="31.6535" x2="127.4117" y2="31.6535">
		<stop  offset="0" style="stop-color:#1D5D48"/>
		<stop  offset="1" style="stop-color:#BBFCF9"/>
	</linearGradient>
	<path class="st2" d="M123.4,31.7c0-3.6,1.4-6.9,3.7-9.4v-4.5h-6.4v10.7H112V17.7h-6.4v27.8h6.4V34.5h8.7v11.1h6.4V41
		C124.8,38.6,123.4,35.3,123.4,31.7z"/>
	<linearGradient id="SVGID_7_" gradientUnits="userSpaceOnUse" x1="145.7381" y1="31.6535" x2="165.3714" y2="31.6535">
		<stop  offset="0" style="stop-color:#00130F"/>
		<stop  offset="0.5" style="stop-color:#00483B"/>
	</linearGradient>
	<linearGradient id="SVGID_8_" gradientUnits="userSpaceOnUse" x1="145.3313" y1="31.6535" x2="165.6546" y2="31.6535">
		<stop  offset="0" style="stop-color:#1D5D48"/>
		<stop  offset="1" style="stop-color:#BBFCF9"/>
	</linearGradient>
	<path class="st3" d="M164.8,34.5c-0.4-0.9-0.8-1.6-1.3-2.1c-0.5-0.5-1.2-1.1-2.1-1.6c-0.9-0.5-1.7-0.8-2.3-1.1
		c-0.6-0.2-1.5-0.5-2.6-0.8c-2-0.6-3.4-1.2-4-1.7c-0.6-0.5-1-1.1-1-1.8c0-0.6,0.3-1.1,0.8-1.5c0.5-0.4,1.3-0.6,2.2-0.6
		c1.2,0,2.2,0.3,2.9,0.8c0.7,0.5,1.4,1.3,1.9,2.4l5.4-3.1c-1-2-2.4-3.6-4.1-4.7c-1.7-1.1-3.8-1.6-6-1.6c-2.5,0-4.7,0.8-6.6,2.3
		c-0.7,0.5-1.2,1.2-1.6,1.8c2.9,2.5,4.7,6.2,4.7,10.3c0,0.6,0,1.1-0.1,1.7c0.7,0.3,1.5,0.6,2.4,0.8c2.2,0.6,3.7,1.1,4.6,1.6
		c0.8,0.5,1.2,1.1,1.2,1.9c0,1.5-1.3,2.3-3.8,2.3c-2.4,0-4.2-1-5.4-3c-0.9,2.1-2.3,4-4.1,5.4c0.6,0.7,1.4,1.4,2.2,1.9
		c1.9,1.2,4.3,1.8,7.1,1.8c3.1,0,5.6-0.8,7.5-2.3c1.9-1.5,2.9-3.6,2.9-6.3C165.4,36.4,165.2,35.4,164.8,34.5z"/>
	<g>
		<linearGradient id="SVGID_9_" gradientUnits="userSpaceOnUse" x1="187.8193" y1="31.6535" x2="209.2948" y2="31.6535">
			<stop  offset="0" style="stop-color:#00130F"/>
			<stop  offset="0.5" style="stop-color:#00483B"/>
		</linearGradient>
		<linearGradient id="SVGID_10_" gradientUnits="userSpaceOnUse" x1="187.47" y1="31.6535" x2="209.578" y2="31.6535">
			<stop  offset="0" style="stop-color:#1D5D48"/>
			<stop  offset="1" style="stop-color:#BBFCF9"/>
		</linearGradient>
		<path class="st4" d="M199,46.1c-2.8,0-5.2-0.6-7.1-1.8c-1.9-1.2-3.2-2.9-4-5l5.5-3.2c1.1,2.6,3.1,3.9,5.8,3.9
			c2.5,0,3.8-0.8,3.8-2.3c0-0.8-0.4-1.5-1.2-1.9c-0.8-0.5-2.3-1-4.6-1.6c-1.2-0.3-2.2-0.7-3.1-1.1c-0.9-0.4-1.7-0.9-2.6-1.6
			c-0.8-0.6-1.5-1.5-1.9-2.4c-0.4-1-0.7-2.1-0.7-3.4c0-2.6,0.9-4.6,2.8-6.2c1.8-1.5,4-2.3,6.6-2.3c2.3,0,4.3,0.5,6,1.6
			c1.7,1.1,3.1,2.6,4.1,4.7l-5.4,3.1c-0.5-1.1-1.1-1.9-1.9-2.4c-0.7-0.5-1.7-0.8-2.9-0.8c-1,0-1.7,0.2-2.2,0.6
			c-0.5,0.4-0.8,0.9-0.8,1.5c0,0.7,0.3,1.3,1,1.8c0.6,0.5,2,1.1,4,1.7c1.1,0.3,2,0.6,2.6,0.8c0.6,0.2,1.4,0.6,2.3,1.1
			c0.9,0.5,1.7,1,2.1,1.6c0.5,0.5,0.9,1.3,1.3,2.1c0.4,0.9,0.6,1.9,0.6,3c0,2.7-1,4.7-2.9,6.3C204.5,45.4,202,46.1,199,46.1z"/>
		<linearGradient id="SVGID_11_" gradientUnits="userSpaceOnUse" x1="209.6924" y1="31.6535" x2="248.5868" y2="31.6535">
			<stop  offset="0" style="stop-color:#00130F"/>
			<stop  offset="0.5" style="stop-color:#00483B"/>
		</linearGradient>
		<linearGradient id="SVGID_12_" gradientUnits="userSpaceOnUse" x1="209.3205" y1="31.6535" x2="248.9587" y2="31.6535">
			<stop  offset="0" style="stop-color:#1D5D48"/>
			<stop  offset="1" style="stop-color:#BBFCF9"/>
		</linearGradient>
		<path class="st5" d="M217.4,45.6l-7.7-27.8h6.7l4.8,19.5l5.4-19.5h5.2l5.4,19.5l4.8-19.5h6.7l-7.7,27.8h-7.2l-4.5-16.4l-4.5,16.4
			H217.4z"/>
		<linearGradient id="SVGID_13_" gradientUnits="userSpaceOnUse" x1="247.3934" y1="31.6535" x2="274.4365" y2="31.6535">
			<stop  offset="0" style="stop-color:#00130F"/>
			<stop  offset="0.5" style="stop-color:#00483B"/>
		</linearGradient>
		<linearGradient id="SVGID_14_" gradientUnits="userSpaceOnUse" x1="246.9979" y1="31.6535" x2="274.832" y2="31.6535">
			<stop  offset="0" style="stop-color:#1D5D48"/>
			<stop  offset="1" style="stop-color:#BBFCF9"/>
		</linearGradient>
		<path class="st6" d="M267.5,45.6l-1.4-4.4h-10.3l-1.4,4.4h-7l9.5-27.8h8.1l9.5,27.8H267.5z M257.7,35.2h6.5L260.9,25L257.7,35.2z"
			/>
		<linearGradient id="SVGID_15_" gradientUnits="userSpaceOnUse" x1="276.8226" y1="31.6535" x2="297.1048" y2="31.6535">
			<stop  offset="0" style="stop-color:#00130F"/>
			<stop  offset="0.5" style="stop-color:#00483B"/>
		</linearGradient>
		<linearGradient id="SVGID_16_" gradientUnits="userSpaceOnUse" x1="276.5393" y1="31.6535" x2="297.3881" y2="31.6535">
			<stop  offset="0" style="stop-color:#1D5D48"/>
			<stop  offset="1" style="stop-color:#BBFCF9"/>
		</linearGradient>
		<path class="st7" d="M287.4,17.7c2.7,0,5,0.9,6.9,2.8c1.9,1.9,2.8,4.1,2.8,6.8c0,2.7-0.9,4.9-2.8,6.8c-1.9,1.9-4.2,2.8-6.9,2.8
			h-4.2v8.7h-6.4V17.7H287.4z M287.4,30.9c1,0,1.8-0.3,2.4-1c0.6-0.7,1-1.5,1-2.5c0-1-0.3-1.9-1-2.5c-0.6-0.7-1.4-1-2.4-1h-4.2v7.2
			H287.4z"/>
	</g>
	<g>
		<circle class="st8" cx="31.7" cy="31.7" r="27.5"/>
		<circle class="st9" cx="31.7" cy="31.7" r="26"/>
		<linearGradient id="SVGID_17_" gradientUnits="userSpaceOnUse" x1="-2.155500e-05" y1="31.6535" x2="63.307" y2="31.6535">
			<stop  offset="0" style="stop-color:#71FFC5"/>
			<stop  offset="1" style="stop-color:#0DBCBC"/>
		</linearGradient>
		<circle class="st10" cx="31.7" cy="31.7" r="31.5"/>
		<g class="st11">
			<path d="M53.2,56.2c-7.7-10.3-8.5-23.8-8.3-36.2c-0.4-22-33-22-33.4,0c0.1,6,0,12.5-1.1,18.4c-1.1,6.4-3.1,12.5-7.2,17.8
				c-0.7,1.4-0.2,3.2,1.6,3.1c3.5,0.5,7.1-5.5,10-1.5c1.3,3.4,2.5,0.7,5,0.5c2.4,0.2,4.3,3.2,8.4,0c4.7-3.9,6.3-1.4,8.4,0
				c2.5,1.8,3.9,2.1,5-0.5c1.8-4.2,6.5,2,10,1.5C53.4,59.4,53.9,57.6,53.2,56.2z"/>
			<g>
				<linearGradient id="SVGID_18_" gradientUnits="userSpaceOnUse" x1="28.2218" y1="59.7772" x2="28.2218" y2="3.5977">
					<stop  offset="0" style="stop-color:#71FFC5"/>
					<stop  offset="1" style="stop-color:#0DBCBC"/>
				</linearGradient>
				<path class="st12" d="M53.3,56.2c-5.6-7.5-7.5-16.7-8.1-25.9C45,28.1,45,25.9,45,23.6c0-1.9,0.1-3.8-0.1-5.7
					c-0.3-2.5-1.1-4.8-2.4-6.9c-4.9-7.8-16-9.6-23.6-4.9c-4.1,2.5-6.6,6.8-7.2,11.5c-0.3,1.9-0.2,3.9-0.2,5.8c0,2.6-0.1,5.1-0.2,7.7
					c-0.3,4.9-1.2,9.9-2.7,14.6c-0.8,2.4-1.8,4.7-3,6.9c-0.6,1-1.2,1.9-1.8,2.9c-0.5,0.6-0.8,1.2-0.8,2c0,3,3.8,1.8,5.4,0.9
					c1.3-0.7,2.8-2,4.4-1.9c1.1,0.1,1.8,0.8,2.3,1.7c0.3,0.5,0.5,1.1,1.1,1.3c0.8,0.3,1.7-0.4,2.3-0.7c1.8-0.8,2.9,0.1,4.6,0.7
					c1.3,0.5,2.5,0.4,3.8-0.1c2-0.9,3.5-3,5.8-3.1c2.8-0.1,4.3,3.3,7,3.5c1.4,0.1,1.8-1.2,2.4-2.2c1-1.8,2.7-1.1,4.1-0.4
					c1.2,0.7,2.4,1.5,3.8,1.9c0.9,0.3,2.4,0.6,3.2-0.1C53.8,58.3,53.7,57.1,53.3,56.2c0-0.1-0.2,0-0.1,0.1c0.6,1.3,0.3,2.8-1.4,3
					c-0.7,0.1-1.4-0.1-2.1-0.3c-1.4-0.5-2.6-1.4-4-2.1c-0.8-0.4-1.7-0.8-2.6-0.6c-1.2,0.2-1.4,1.4-1.9,2.3c-1.9,3-5.2-1.4-7.4-2.2
					c-3.3-1.2-5.5,2.7-8.3,3.3c-1.6,0.3-2.9-0.4-4.3-1c-1.1-0.4-1.9-0.4-2.9,0.1c-0.5,0.2-1.1,0.7-1.7,0.7c-1.1,0.1-1.3-1.1-1.7-1.8
					c-0.6-0.9-1.6-1.3-2.6-1.2c-2.8,0.3-5,3.7-8,2.8c-2.9-0.9,0.5-4.7,1.3-6.1c1-1.8,1.9-3.6,2.6-5.5c3.2-8.5,3.6-17.6,3.5-26.6
					c0-5.2,1.6-10.3,5.8-13.6c7.1-5.7,18.7-4.7,24.3,2.7c3.9,5.2,3,11.5,3.2,17.6c0.3,8,1.4,16.2,5,23.4c0.9,1.8,2,3.5,3.2,5.2
					C53.2,56.3,53.3,56.3,53.3,56.2z"/>
			</g>
		</g>
		<g class="st11">
			<path d="M60.5,56.2C52.7,45.9,52,32.5,52.2,20c-0.4-22-33-22-33.4,0c0.1,6,0,12.5-1.1,18.4c-1.1,6.4-3.1,12.5-7.2,17.8
				c-0.7,1.4-0.2,3.2,1.6,3.1c3.5,0.5,7.1-5.5,10-1.5c1.3,3.4,2.5,0.7,5,0.5c2.4,0.2,4.3,3.2,8.4,0c4.7-3.9,6.3-1.4,8.4,0
				c2.5,1.8,3.9,2.1,5-0.5c1.8-4.2,6.5,2,10,1.5C60.7,59.4,61.2,57.6,60.5,56.2z"/>
			<g>
				<linearGradient id="SVGID_19_" gradientUnits="userSpaceOnUse" x1="35.4814" y1="59.7772" x2="35.4814" y2="3.5977">
					<stop  offset="0" style="stop-color:#71FFC5"/>
					<stop  offset="1" style="stop-color:#0DBCBC"/>
				</linearGradient>
				<path class="st13" d="M60.5,56.2C55,48.7,53,39.5,52.4,30.3c-0.1-2.2-0.2-4.4-0.2-6.7c0-1.9,0.1-3.8-0.1-5.7
					c-0.3-2.5-1.1-4.8-2.4-6.9c-4.9-7.8-16-9.6-23.6-4.9c-4.1,2.5-6.6,6.8-7.2,11.5c-0.3,1.9-0.2,3.9-0.2,5.8c0,2.6-0.1,5.1-0.2,7.7
					c-0.3,4.9-1.2,9.9-2.7,14.6c-0.8,2.4-1.8,4.7-3,6.9c-0.6,1-1.2,1.9-1.8,2.9c-0.5,0.6-0.8,1.2-0.8,2c0,3,3.8,1.8,5.4,0.9
					c1.3-0.7,2.8-2,4.4-1.9c1.1,0.1,1.8,0.8,2.3,1.7c0.3,0.5,0.5,1.1,1.1,1.3c0.8,0.3,1.7-0.4,2.3-0.7c1.8-0.8,2.9,0.1,4.6,0.7
					c1.3,0.5,2.5,0.4,3.8-0.1c2-0.9,3.5-3,5.8-3.1c2.8-0.1,4.3,3.3,7,3.5c1.4,0.1,1.8-1.2,2.4-2.2c1-1.8,2.7-1.1,4.1-0.4
					c1.2,0.7,2.4,1.5,3.8,1.9c0.9,0.3,2.4,0.6,3.2-0.1C61.1,58.3,60.9,57.1,60.5,56.2c0-0.1-0.2,0-0.1,0.1c0.6,1.3,0.3,2.8-1.4,3
					c-0.7,0.1-1.4-0.1-2.1-0.3c-1.4-0.5-2.6-1.4-4-2.1c-0.8-0.4-1.7-0.8-2.6-0.6c-1.2,0.2-1.4,1.4-1.9,2.3c-1.9,3-5.2-1.4-7.4-2.2
					c-3.3-1.2-5.5,2.7-8.3,3.3c-1.6,0.3-2.9-0.4-4.3-1c-1.1-0.4-1.9-0.4-2.9,0.1c-0.5,0.2-1.1,0.7-1.7,0.7c-1.1,0.1-1.3-1.1-1.7-1.8
					c-0.6-0.9-1.6-1.3-2.6-1.2c-2.8,0.3-5,3.7-8,2.8c-2.9-0.9,0.5-4.7,1.3-6.1c1-1.8,1.9-3.6,2.6-5.5c3.2-8.5,3.6-17.6,3.5-26.6
					c0-5.2,1.6-10.3,5.8-13.6c7.1-5.7,18.7-4.7,24.3,2.7c3.9,5.2,3,11.5,3.2,17.6c0.3,8,1.4,16.2,5,23.4c0.9,1.8,2,3.5,3.2,5.2
					C60.5,56.3,60.6,56.3,60.5,56.2z"/>
			</g>
		</g>
		<g class="st14">
			<path d="M54.6,56.2c-7.7-10.3-8.5-23.8-8.3-36.2c-0.4-22-33-22-33.4,0c0.1,6,0,12.5-1.1,18.4c-1.1,6.4-3.1,12.5-7.2,17.8
				c-0.7,1.4-0.2,3.2,1.6,3.1c3.5,0.5,7.1-5.5,10-1.5c1.3,3.4,2.5,0.7,5,0.5c2.4,0.2,4.3,3.2,8.4,0c4.7-3.9,6.3-1.4,8.4,0
				c2.5,1.8,3.9,2.1,5-0.5c1.8-4.2,6.5,2,10,1.5C54.9,59.4,55.3,57.6,54.6,56.2z"/>
			<g>
				<linearGradient id="SVGID_20_" gradientUnits="userSpaceOnUse" x1="29.6501" y1="59.7576" x2="29.6501" y2="3.5495">
					<stop  offset="0" style="stop-color:#71FFC5"/>
					<stop  offset="1" style="stop-color:#0DBCBC"/>
				</linearGradient>
				<path class="st15" d="M54.8,56.2c-5.5-7.5-7.5-16.7-8.1-25.9c-0.1-2.2-0.2-4.4-0.2-6.7c0-1.9,0.1-3.8-0.1-5.7
					c-0.3-2.5-1.1-4.9-2.4-7C39.1,3.1,27.9,1.3,20.3,6c-4.1,2.6-6.6,6.8-7.3,11.6c-0.3,1.9-0.2,3.9-0.2,5.8c0,2.6-0.1,5.1-0.2,7.7
					c-0.3,4.9-1.2,9.9-2.7,14.6c-0.8,2.4-1.8,4.7-3,6.9c-0.6,1-1.2,1.9-1.8,2.9c-0.5,0.6-0.8,1.2-0.8,2c0,3.1,3.9,1.9,5.5,1
					c1.3-0.7,2.8-2,4.4-1.9c1,0.1,1.7,0.8,2.2,1.7c0.3,0.5,0.5,1.1,1.1,1.3c0.8,0.3,1.7-0.4,2.4-0.7c1.8-0.8,2.9,0.1,4.5,0.7
					c1.3,0.5,2.6,0.4,3.8-0.2c2-0.9,3.4-3,5.8-3.1c2.8-0.1,4.3,3.3,7,3.5c1.4,0.1,1.9-1.2,2.4-2.2c1-1.7,2.6-1.1,4-0.3
					c1.3,0.7,2.5,1.5,3.8,1.9c1,0.3,2.4,0.6,3.3-0.1C55.3,58.3,55.2,57.1,54.8,56.2c-0.1-0.2-0.3,0-0.2,0.1c0.5,1.3,0.3,2.7-1.3,2.9
					c-0.7,0.1-1.4-0.1-2.1-0.3c-1.4-0.5-2.6-1.4-4-2c-0.8-0.4-1.7-0.8-2.6-0.6c-1.2,0.3-1.4,1.4-2,2.3c-1.9,3-5.2-1.5-7.3-2.2
					c-3.3-1.2-5.5,2.7-8.4,3.3c-1.6,0.3-2.9-0.4-4.3-1c-1.1-0.4-1.9-0.4-3,0.1c-0.5,0.2-1.1,0.7-1.7,0.7c-1,0.1-1.2-1.1-1.7-1.8
					c-0.6-0.9-1.6-1.4-2.7-1.3c-2.8,0.3-5,3.7-8,2.8c-2.8-0.9,0.6-4.7,1.4-6c1-1.8,1.9-3.6,2.6-5.5c3.2-8.5,3.6-17.6,3.5-26.6
					c0-5.2,1.6-10.3,5.8-13.6C26,1.7,37.5,2.7,43,10.1c3.9,5.2,3,11.5,3.2,17.6c0.3,8,1.4,16.2,5,23.5c0.9,1.8,2,3.5,3.2,5.2
					C54.6,56.4,54.9,56.3,54.8,56.2z"/>
			</g>
		</g>
		<g class="st14">
			<path d="M58.9,56.2c-7.7-10.3-8.5-23.8-8.3-36.2c-0.4-22-33-22-33.4,0c0.1,6,0,12.5-1.1,18.4c-1.1,6.4-3.1,12.5-7.2,17.8
				c-0.7,1.4-0.2,3.2,1.6,3.1c3.5,0.5,7.1-5.5,10-1.5c1.3,3.4,2.5,0.7,5,0.5c2.4,0.2,4.3,3.2,8.4,0c4.7-3.9,6.3-1.4,8.4,0
				c2.5,1.8,3.9,2.1,5-0.5c1.8-4.2,6.5,2,10,1.5C59.1,59.4,59.6,57.6,58.9,56.2z"/>
			<g>
				<linearGradient id="SVGID_21_" gradientUnits="userSpaceOnUse" x1="33.8801" y1="59.7576" x2="33.8801" y2="3.5495">
					<stop  offset="0" style="stop-color:#71FFC5"/>
					<stop  offset="1" style="stop-color:#0DBCBC"/>
				</linearGradient>
				<path class="st16" d="M59,56.2c-5.5-7.5-7.5-16.7-8.1-25.9c-0.1-2.2-0.2-4.4-0.2-6.7c0-1.9,0.1-3.8-0.1-5.7
					c-0.3-2.5-1.1-4.9-2.4-7C43.3,3.1,32.1,1.3,24.5,6c-4.1,2.6-6.6,6.8-7.3,11.6c-0.3,1.9-0.2,3.9-0.2,5.8c0,2.6-0.1,5.1-0.2,7.7
					c-0.3,4.9-1.2,9.9-2.7,14.6c-0.8,2.4-1.8,4.7-3,6.9c-0.6,1-1.2,1.9-1.8,2.9c-0.5,0.6-0.8,1.2-0.8,2c0,3.1,3.9,1.9,5.5,1
					c1.3-0.7,2.8-2,4.4-1.9c1,0.1,1.7,0.8,2.2,1.7c0.3,0.5,0.5,1.1,1.1,1.3c0.8,0.3,1.7-0.4,2.4-0.7c1.8-0.8,2.9,0.1,4.5,0.7
					c1.3,0.5,2.6,0.4,3.8-0.2c2-0.9,3.4-3,5.8-3.1c2.8-0.1,4.3,3.3,7,3.5c1.4,0.1,1.9-1.2,2.4-2.2c1-1.7,2.6-1.1,4-0.3
					c1.3,0.7,2.5,1.5,3.8,1.9c1,0.3,2.4,0.6,3.3-0.1C59.5,58.3,59.4,57.1,59,56.2c-0.1-0.2-0.3,0-0.2,0.1c0.5,1.3,0.3,2.7-1.3,2.9
					c-0.7,0.1-1.4-0.1-2.1-0.3c-1.4-0.5-2.6-1.4-4-2c-0.8-0.4-1.7-0.8-2.6-0.6c-1.2,0.3-1.4,1.4-2,2.3c-1.9,3-5.2-1.5-7.3-2.2
					c-3.3-1.2-5.5,2.7-8.4,3.3c-1.6,0.3-2.9-0.4-4.3-1c-1.1-0.4-1.9-0.4-3,0.1c-0.5,0.2-1.1,0.7-1.7,0.7c-1,0.1-1.2-1.1-1.7-1.8
					c-0.6-0.9-1.6-1.4-2.7-1.3c-2.8,0.3-5,3.7-8,2.8c-2.8-0.9,0.6-4.7,1.4-6c1-1.8,1.9-3.6,2.6-5.5c3.2-8.5,3.6-17.6,3.5-26.6
					c0-5.2,1.6-10.3,5.8-13.6c7.1-5.7,18.6-4.6,24.1,2.7c3.9,5.2,3,11.5,3.2,17.6c0.3,8,1.4,16.2,5,23.5c0.9,1.8,2,3.5,3.2,5.2
					C58.9,56.4,59.1,56.3,59,56.2z"/>
			</g>
		</g>
		<g>
			<path d="M56.6,56.2c-7.7-10.3-8.5-23.8-8.3-36.2c-0.4-22-33-22-33.4,0c0.1,6,0,12.5-1.1,18.4c-1.1,6.4-3.1,12.5-7.2,17.8
				c-0.7,1.4-0.2,3.2,1.6,3.1c3.5,0.5,7.1-5.5,10-1.5c1.3,3.4,2.5,0.7,5,0.5c2.4,0.2,4.3,3.2,8.4,0c4.7-3.9,6.3-1.4,8.4,0
				c2.5,1.8,3.9,2.1,5-0.5c1.8-4.2,6.5,2,10,1.5C56.9,59.4,57.3,57.6,56.6,56.2z"/>
			<g>
				<linearGradient id="SVGID_22_" gradientUnits="userSpaceOnUse" x1="31.6438" y1="59.9005" x2="31.6438" y2="3.4066">
					<stop  offset="0" style="stop-color:#71FFC5"/>
					<stop  offset="1" style="stop-color:#0DBCBC"/>
				</linearGradient>
				<path class="st17" d="M57.4,55.8c-5.5-7.4-7.4-16.5-8-25.5c-0.4-6.6,0.9-13.8-2.8-19.7C41.5,2.5,29.9,0.5,21.9,5.4
					c-4.3,2.7-7,7.2-7.6,12.2c-0.3,1.9-0.2,3.9-0.2,5.8c0,2.6-0.1,5.1-0.2,7.7c-0.3,4.9-1.1,9.8-2.7,14.4c-0.8,2.3-1.7,4.6-2.9,6.7
					c-0.6,1-1.2,1.9-1.8,2.9c-0.5,0.7-0.9,1.4-0.9,2.4c0,3.8,4.4,2.8,6.5,1.6c1.1-0.6,2.6-1.9,4-1.8c1.7,0.2,1.6,2.3,2.9,2.9
					c1.1,0.5,2.1-0.3,3.1-0.7c1.5-0.6,2.6,0.3,4,0.8c1.5,0.5,3,0.4,4.4-0.2c1.8-0.9,3.3-2.8,5.4-3c1.2-0.1,2.1,0.7,3,1.4
					c1.1,0.9,2.5,2,4,2.1c1.7,0.1,2.4-1.3,3.1-2.6c0.7-1.3,2-0.6,3.1-0.1c1.3,0.7,2.6,1.5,4,2c1.2,0.4,2.9,0.6,3.9-0.3
					C58,58.6,57.9,57,57.4,55.8c-0.4-1-1.9-0.1-1.5,0.9c0.3,0.8,0.3,1.7-0.7,1.8c-0.7,0.1-1.3-0.1-1.9-0.3c-1.3-0.5-2.5-1.3-3.8-2
					c-1-0.5-2.1-1-3.2-0.7c-1.4,0.3-1.7,1.5-2.4,2.6c-1,1.5-2.7-0.1-3.8-0.8c-0.9-0.6-1.7-1.4-2.7-1.7c-1.2-0.4-2.4-0.2-3.6,0.3
					c-1.8,0.8-3.2,2.6-5.2,3c-1.4,0.3-2.6-0.5-3.8-1c-1.3-0.5-2.3-0.5-3.6,0.1c-0.3,0.2-1,0.7-1.4,0.6c-0.5-0.1-0.8-1.2-1.1-1.6
					c-0.8-1.1-2-1.6-3.4-1.4c-1.3,0.2-2.5,1-3.6,1.6c-1.1,0.6-2.7,1.7-4.1,1.2c-1.7-0.7,1.3-4.1,1.8-4.9c1.1-1.8,1.9-3.7,2.7-5.7
					c3.2-8.5,3.7-17.8,3.6-26.8c0-5,1.6-9.9,5.6-13.1c6.7-5.4,17.8-4.4,23,2.6c3.8,5.1,2.9,11.3,3.1,17.2c0.3,8.1,1.4,16.5,5.1,23.8
					c0.9,1.8,2,3.5,3.2,5.2C56.6,57.5,58,56.7,57.4,55.8z"/>
			</g>
		</g>
		<linearGradient id="SVGID_23_" gradientUnits="userSpaceOnUse" x1="19.1815" y1="19.0922" x2="29.936" y2="19.0922">
			<stop  offset="0" style="stop-color:#71FFC5"/>
			<stop  offset="1" style="stop-color:#0DBCBC"/>
		</linearGradient>
		<path class="st18" d="M19.2,21.8c0.1-3.1,2.7-5.5,5.7-5.5c1.5,0,2.8,0.5,3.8,1.4l1.2-1.2v4.1h-4l1.4-1.4l0,0c0,0,0,0,0,0
			c-0.8-1.2-2.1-2-3.6-2C21.3,17.2,19.3,19.3,19.2,21.8z"/>
		<linearGradient id="SVGID_24_" gradientUnits="userSpaceOnUse" x1="33.0958" y1="25.2201" x2="44.0623" y2="25.2201">
			<stop  offset="0" style="stop-color:#71FFC5"/>
			<stop  offset="1" style="stop-color:#0DBCBC"/>
		</linearGradient>
		<path class="st19" d="M44.1,22.6c-0.3,2.9-2.7,5.3-5.7,5.3c-1.5,0-2.8-0.6-3.8-1.5l-1.4,1.5v-4.1h4l-1.1,1.1l0,0c0,0,0,0,0,0
			c0.8,1.2,2.1,2,3.6,2C41.9,26.9,43.8,25,44.1,22.6z"/>
		<linearGradient id="SVGID_25_" gradientUnits="userSpaceOnUse" x1="19.1898" y1="22.0949" x2="44.0623" y2="22.0949">
			<stop  offset="0" style="stop-color:#71FFC5"/>
			<stop  offset="1" style="stop-color:#0DBCBC"/>
		</linearGradient>
		<path class="st20" d="M35.6,19.6l-3,3l-3.5,3.5l0,0c-1,1.1-2.5,1.8-4.1,1.8c-3,0-5.5-2.4-5.7-5.4c0.2,2.5,2.1,4.5,4.5,4.5
			c1.5,0,2.8-0.8,3.6-2c0.2-0.1,0.3-0.3,0.4-0.4l6.5-6.5l0,0c1-1.1,2.5-1.7,4.2-1.7c3,0,5.5,2.3,5.7,5.3c-0.2-2.4-2.1-4.4-4.5-4.4
			c-1.5,0-2.8,0.8-3.6,2c0,0,0,0,0,0C35.9,19.3,35.8,19.4,35.6,19.6L35.6,19.6L35.6,19.6z"/>
		<path class="st21" d="M27.3,24.9c-0.8,1.2-2.1,2-3.6,2c-2.4,0-4.4-2-4.5-4.6c0,0,0-0.1,0-0.1c0,0,0-0.1,0-0.1c0,0,0-0.1,0-0.1
			c0,0,0-0.1,0-0.1c0.1-2.6,2.1-4.6,4.5-4.6c1.4,0,2.7,0.7,3.5,1.9c0,0,0,0.1,0,0c-0.6-0.5-1.4-0.7-2.2-0.7c-2.1,0-3.8,1.8-3.7,3.9
			c0.1,1.9,1.6,3.4,3.5,3.5C25.7,25.8,26.6,25.5,27.3,24.9z"/>
		<path class="st21" d="M44.1,22.1c0,0.1,0,0.1,0,0.1c0,0.1,0,0.2,0,0.3c-0.2,2.4-2.2,4.4-4.5,4.4c-1.5,0-2.8-0.8-3.6-2c0,0,0,0,0,0
			c0.6,0.5,1.5,0.8,2.4,0.8c2.1,0,3.7-1.7,3.7-3.7c0-2-1.7-3.7-3.7-3.7c-0.9,0-1.7,0.3-2.4,0.8c0,0,0,0,0,0c0.8-1.2,2.1-2,3.6-2
			c2.3,0,4.3,1.9,4.5,4.4c0,0.1,0,0.2,0,0.3C44.1,22,44.1,22,44.1,22.1z"/>
	</g>
</g>
</svg>
