<?xml version="1.0" encoding="utf-8"?>
<!-- Generator: Adobe Illustrator 25.2.3, SVG Export Plug-In . SVG Version: 6.00 Build 0)  -->
<svg version="1.1" id="Calque_1" xmlns="http://www.w3.org/2000/svg" xmlns:xlink="http://www.w3.org/1999/xlink" x="0px" y="0px"
	 viewBox="0 0 269.2 269.2" style="enable-background:new 0 0 269.2 269.2;" xml:space="preserve">
<style type="text/css">
	.st0{fill:#001E18;}
	.st1{fill:#000C0A;}
	.st2{opacity:0.19;fill:none;stroke:url(#SVGID_1_);stroke-width:0.9723;stroke-miterlimit:10;}
	.st3{opacity:0.26;}
	.st4{fill:url(#SVGID_2_);}
	.st5{fill:url(#SVGID_3_);}
	.st6{opacity:0.64;}
	.st7{fill:url(#SVGID_4_);}
	.st8{fill:url(#SVGID_5_);}
	.st9{fill:url(#SVGID_6_);}
	.st10{fill:url(#SVGID_7_);}
	.st11{fill:url(#SVGID_8_);}
	.st12{fill:url(#SVGID_9_);}
	.st13{fill:#1D7060;}
</style>
<g>
	<circle class="st0" cx="134.6" cy="134.6" r="117"/>
	<circle class="st1" cx="134.6" cy="134.6" r="110.4"/>
	<linearGradient id="SVGID_1_" gradientUnits="userSpaceOnUse" x1="0" y1="134.5965" x2="269.193" y2="134.5965">
		<stop  offset="0" style="stop-color:#71FFC5"/>
		<stop  offset="1" style="stop-color:#0DBCBC"/>
	</linearGradient>
	<circle class="st2" cx="134.6" cy="134.6" r="134.1"/>
	<g class="st3">
		<path d="M226.3,239.1c-32.9-43.9-35.9-101-35.2-153.8C189.5-8.1,50.5-8.2,49,85.3c0.3,25.5,0.1,53-4.7,78
			c-4.9,27.2-13.3,53.3-30.5,75.8c-2.9,6-0.9,13.7,6.7,13.1c14.9,1.9,30.2-23.4,42.5-6.6c5.4,14.4,10.5,3.1,21.3,2.1
			c10.1,1.1,18.1,13.6,35.7,0c20.1-16.5,26.8-6.1,35.7,0c10.8,7.5,16.5,9.1,21.3-2.1c7.6-18.1,27.7,8.5,42.5,6.6
			C227.2,252.8,229.2,245.1,226.3,239.1z"/>
		<g>
			<linearGradient id="SVGID_2_" gradientUnits="userSpaceOnUse" x1="119.9516" y1="254.278" x2="119.9516" y2="15.3926">
				<stop  offset="0" style="stop-color:#71FFC5"/>
				<stop  offset="1" style="stop-color:#0DBCBC"/>
			</linearGradient>
			<path class="st4" d="M226.5,238.9c-11.1-14.9-19.1-31.8-24.5-49.5c-5.4-17.8-8.1-36.3-9.5-54.8c-0.7-9.2-1-18.5-1.2-27.7
				c-0.1-4.6-0.1-9.2-0.1-13.8c0-3.9,0.2-7.9-0.1-11.8c-0.7-10.9-3.4-21.8-8.7-31.4c-4.7-8.5-11.3-15.9-19.2-21.5
				c-7.7-5.5-16.5-9.3-25.7-11.4c-9.2-2.1-18.8-2.5-28.2-1.3c-9.3,1.2-18.4,4.2-26.6,8.8c-8.3,4.7-15.6,11.1-21.2,18.8
				c-6.2,8.6-10.1,18.6-11.8,29c-1.2,7.1-1.2,14.2-1.1,21.3c0.1,10.6,0,21.3-0.6,31.9c-1,20.5-3.9,41-9.4,60.8
				c-5.2,18.7-13.2,36.6-24.9,52.2c-1.8,2.4-2.2,6.2-1.3,9c0.8,2.7,3,4.6,5.9,5c1.5,0.2,3.1,0.2,4.6,0.1c1.4-0.1,2.8-0.4,4.1-0.8
				c2.9-0.9,5.7-2.4,8.3-3.9c2.8-1.6,5.5-3.4,8.4-4.9c2.6-1.4,5.4-2.6,8.4-2.8c3-0.2,5.8,0.9,8,2.9c0.6,0.6,1.2,1.3,1.8,1.9
				c0.8,0.9,1.1,2.1,1.6,3.2c0.6,1.3,1.4,2.6,2.5,3.6c3.6,3.3,8.6-0.7,12.1-2.2c1.5-0.6,3-1.2,4.6-1.4c1.5-0.3,2.9,0,4.4,0.5
				c2.6,0.8,5.1,2.1,7.6,3.2c2.5,1.1,5.2,2,8,2.3c3.3,0.3,6.6-0.3,9.7-1.6c4.6-2,8.2-5.4,12.4-8.2c3.2-2.1,6.6-4.1,10.4-4.9
				c5.3-1.1,9.9,0.7,14.1,3.8c4.9,3.6,9.5,7.7,15.2,9.9c2.3,0.9,4.8,1.2,7,0.1c2.7-1.4,4.3-4.4,5.5-7.1c1.1-2.5,2.5-5,5.2-6.1
				c2.2-0.8,4.7-0.4,6.9,0.3c5.7,1.8,10.8,5.5,16.1,8.3c5.1,2.7,10.4,4.6,16.2,3.8C228.2,251.6,228.9,243.9,226.5,238.9
				c-0.2-0.4-0.7,0-0.5,0.3c1.4,3,1.9,6.9,0,9.8c-0.9,1.4-2.3,2.3-4,2.6c-0.9,0.2-1.9,0.1-2.8,0.2c-0.6,0-1.3,0.1-1.9,0
				c-5.9-0.3-11.5-3.7-16.5-6.6c-4.5-2.6-9.5-5.9-14.8-6.4c-2-0.2-4.1,0.3-5.7,1.5c-2.4,1.8-3.2,4.7-4.6,7.2
				c-1.4,2.5-3.3,5.2-6.4,5.6c-3.1,0.4-6.2-1.3-8.7-2.8c-2.8-1.6-5.4-3.5-8-5.5c-1.8-1.4-3.6-2.8-5.6-4c-4.4-2.6-9.2-3.1-14-1.5
				c-3.8,1.3-7.3,3.5-10.5,5.9c-3.8,2.9-7.5,5.9-12.1,7.4c-3.2,1-6.6,1.2-9.8,0.5c-2.8-0.6-5.4-1.9-8-3c-2.3-1.1-4.7-2.2-7.2-2.6
				c-2.7-0.5-5.7,0.8-8.1,1.9c-2.2,1-4.4,2.5-6.8,3c-2.8,0.6-4.5-1.4-5.7-3.6c-0.5-0.9-0.9-1.9-1.3-2.9c-0.3-0.7-0.8-1.3-1.4-2
				c-1-1.1-2.1-2.1-3.4-2.9c-2.2-1.3-4.7-1.8-7.2-1.4c-5.8,0.8-11,4.7-15.9,7.5c-2.7,1.6-5.5,3.1-8.6,4c-1.4,0.4-2.9,0.7-4.4,0.8
				c-0.7,0-1.3-0.1-2-0.1c-1,0-1.9,0-2.9-0.2c-3.4-0.9-4.9-4.3-4.8-7.7c0.1-1.8,0.5-3.8,1.6-5.2c1.5-2,2.9-4,4.3-6
				c5.2-7.7,9.6-16,13.2-24.6c7.4-17.7,11.8-36.7,14.5-55.6c2.9-20.6,3.1-41.5,3-62.2c-0.1-6.7,0.2-13.2,1.5-19.8
				c1-5.3,2.6-10.5,4.8-15.5c4-8.9,10-16.9,17.5-23.1c7.2-6.1,15.8-10.5,24.8-13.2c9-2.7,18.5-3.7,27.9-3c9.4,0.7,18.6,3.1,27.1,7.1
				c8.5,4.1,16.1,9.9,22.2,17.1c6.6,7.9,11.1,17.4,13.5,27.4c1.4,5.7,2.1,11.7,2.2,17.5c0.1,9-0.1,18,0.1,27c0.4,18,1.7,36.1,5,53.8
				c3.2,17.6,8.3,34.8,16.3,50.8c4,7.9,8.6,15.5,13.9,22.6C226.2,239.5,226.8,239.2,226.5,238.9z"/>
		</g>
	</g>
	<g class="st3">
		<path d="M257.1,239.1c-32.9-43.9-35.9-101-35.2-153.8c-1.6-93.3-140.5-93.4-142.1,0c0.3,25.5,0.1,53-4.7,78
			c-4.9,27.2-13.3,53.3-30.5,75.8c-2.9,6-0.9,13.7,6.7,13.1c14.9,1.9,30.2-23.4,42.5-6.6c5.4,14.4,10.5,3.1,21.3,2.1
			c10.1,1.1,18.1,13.6,35.7,0c20.1-16.5,26.8-6.1,35.7,0c10.8,7.5,16.5,9.1,21.3-2.1c7.6-18.1,27.7,8.5,42.5,6.6
			C258,252.8,260.1,245.1,257.1,239.1z"/>
		<g>
			<linearGradient id="SVGID_3_" gradientUnits="userSpaceOnUse" x1="150.8208" y1="254.278" x2="150.8208" y2="15.3926">
				<stop  offset="0" style="stop-color:#71FFC5"/>
				<stop  offset="1" style="stop-color:#0DBCBC"/>
			</linearGradient>
			<path class="st5" d="M257.4,238.9c-11.1-14.9-19.1-31.8-24.5-49.5c-5.4-17.8-8.1-36.3-9.5-54.8c-0.7-9.2-1-18.5-1.2-27.7
				c-0.1-4.6-0.1-9.2-0.1-13.8c0-3.9,0.2-7.9-0.1-11.8c-0.7-10.9-3.4-21.8-8.7-31.4c-4.7-8.5-11.3-15.9-19.2-21.5
				c-7.7-5.5-16.5-9.3-25.7-11.4c-9.2-2.1-18.8-2.5-28.2-1.3c-9.3,1.2-18.4,4.2-26.6,8.8c-8.3,4.7-15.6,11.1-21.2,18.8
				c-6.2,8.6-10.1,18.6-11.8,29c-1.2,7.1-1.2,14.2-1.1,21.3c0.1,10.6,0,21.3-0.6,31.9c-1,20.5-3.9,41-9.4,60.8
				c-5.2,18.7-13.2,36.6-24.9,52.2c-1.8,2.4-2.2,6.2-1.3,9c0.8,2.7,3,4.6,5.9,5c1.5,0.2,3.1,0.2,4.6,0.1c1.4-0.1,2.8-0.4,4.1-0.8
				c2.9-0.9,5.7-2.4,8.3-3.9c2.8-1.6,5.5-3.4,8.4-4.9c2.6-1.4,5.4-2.6,8.4-2.8c3-0.2,5.8,0.9,8,2.9c0.6,0.6,1.2,1.3,1.8,1.9
				c0.8,0.9,1.1,2.1,1.6,3.2c0.6,1.3,1.4,2.6,2.5,3.6c3.6,3.3,8.6-0.7,12.1-2.2c1.5-0.6,3-1.2,4.6-1.4c1.5-0.3,2.9,0,4.4,0.5
				c2.6,0.8,5.1,2.1,7.6,3.2c2.5,1.1,5.2,2,8,2.3c3.3,0.3,6.6-0.3,9.7-1.6c4.6-2,8.2-5.4,12.4-8.2c3.2-2.1,6.6-4.1,10.4-4.9
				c5.3-1.1,9.9,0.7,14.1,3.8c4.9,3.6,9.5,7.7,15.2,9.9c2.3,0.9,4.8,1.2,7,0.1c2.7-1.4,4.3-4.4,5.5-7.1c1.1-2.5,2.5-5,5.2-6.1
				c2.2-0.8,4.7-0.4,6.9,0.3c5.7,1.8,10.8,5.5,16.1,8.3c5.1,2.7,10.4,4.6,16.2,3.8C259.1,251.6,259.7,243.9,257.4,238.9
				c-0.2-0.4-0.7,0-0.5,0.3c1.4,3,1.9,6.9,0,9.8c-0.9,1.4-2.3,2.3-4,2.6c-0.9,0.2-1.9,0.1-2.8,0.2c-0.6,0-1.3,0.1-1.9,0
				c-5.9-0.3-11.5-3.7-16.5-6.6c-4.5-2.6-9.5-5.9-14.8-6.4c-2-0.2-4.1,0.3-5.7,1.5c-2.4,1.8-3.2,4.7-4.6,7.2
				c-1.4,2.5-3.3,5.2-6.4,5.6c-3.1,0.4-6.2-1.3-8.7-2.8c-2.8-1.6-5.4-3.5-8-5.5c-1.8-1.4-3.6-2.8-5.6-4c-4.4-2.6-9.2-3.1-14-1.5
				c-3.8,1.3-7.3,3.5-10.5,5.9c-3.8,2.9-7.5,5.9-12.1,7.4c-3.2,1-6.6,1.2-9.8,0.5c-2.8-0.6-5.4-1.9-8-3c-2.3-1.1-4.7-2.2-7.2-2.6
				c-2.7-0.5-5.7,0.8-8.1,1.9c-2.2,1-4.4,2.5-6.8,3c-2.8,0.6-4.5-1.4-5.7-3.6c-0.5-0.9-0.9-1.9-1.3-2.9c-0.3-0.7-0.8-1.3-1.4-2
				c-1-1.1-2.1-2.1-3.4-2.9c-2.2-1.3-4.7-1.8-7.2-1.4c-5.8,0.8-11,4.7-15.9,7.5c-2.7,1.6-5.5,3.1-8.6,4c-1.4,0.4-2.9,0.7-4.4,0.8
				c-0.7,0-1.3-0.1-2-0.1c-1,0-1.9,0-2.9-0.2c-3.4-0.9-4.9-4.3-4.8-7.7c0.1-1.8,0.5-3.8,1.6-5.2c1.5-2,2.9-4,4.3-6
				c5.2-7.7,9.6-16,13.2-24.6c7.4-17.7,11.8-36.7,14.5-55.6c2.9-20.6,3.1-41.5,3-62.2c-0.1-6.7,0.2-13.2,1.5-19.8
				c1-5.3,2.6-10.5,4.8-15.5c4-8.9,10-16.9,17.5-23.1c7.2-6.1,15.8-10.5,24.8-13.2c9-2.7,18.5-3.7,27.9-3c9.4,0.7,18.6,3.1,27.1,7.1
				c8.5,4.1,16.1,9.9,22.2,17.1c6.6,7.9,11.1,17.4,13.5,27.4c1.4,5.7,2.1,11.7,2.2,17.5c0.1,9-0.1,18,0.1,27c0.4,18,1.7,36.1,5,53.8
				c3.2,17.6,8.3,34.8,16.3,50.8c4,7.9,8.6,15.5,13.9,22.6C257.1,239.5,257.6,239.2,257.4,238.9z"/>
		</g>
	</g>
	<g class="st6">
		<path d="M232.4,239.1c-32.9-43.9-35.9-101-35.2-153.8C195.6-8.1,56.6-8.2,55,85.3c0.3,25.5,0.1,53-4.7,78
			c-4.9,27.2-13.3,53.3-30.5,75.8c-2.9,6-0.9,13.7,6.7,13.1c14.9,1.9,30.2-23.4,42.5-6.6c5.4,14.4,10.5,3.1,21.3,2.1
			c10.1,1.1,18.1,13.6,35.7,0c20.1-16.5,26.8-6.1,35.7,0c10.8,7.5,16.5,9.1,21.3-2.1c7.6-18.1,27.7,8.5,42.5,6.6
			C233.2,252.8,235.3,245.1,232.4,239.1z"/>
		<g>
			<linearGradient id="SVGID_4_" gradientUnits="userSpaceOnUse" x1="126.0247" y1="254.1" x2="126.0247" y2="15.093">
				<stop  offset="0" style="stop-color:#71FFC5"/>
				<stop  offset="1" style="stop-color:#0DBCBC"/>
			</linearGradient>
			<path class="st7" d="M232.9,238.8c-11.1-14.9-19.1-31.7-24.5-49.4c-5.4-17.8-8.1-36.3-9.5-54.8c-0.7-9.2-1-18.5-1.2-27.7
				c-0.1-4.6-0.1-9.2-0.1-13.8c0-3.9,0.2-7.9-0.1-11.8c-0.7-11-3.4-21.9-8.7-31.6c-4.7-8.6-11.3-15.9-19.3-21.6
				c-7.7-5.5-16.6-9.3-25.8-11.4c-9.2-2.1-18.9-2.6-28.3-1.3c-9.4,1.3-18.5,4.2-26.7,8.8C80.4,28.8,73.1,35.3,67.5,43
				c-6.2,8.6-10.1,18.6-11.9,29.1c-1.2,7.1-1.2,14.2-1.1,21.4c0.1,10.6,0,21.3-0.6,31.9c-1,20.5-3.8,41-9.4,60.8
				c-5.2,18.7-13.1,36.6-24.9,52.1c-1.8,2.4-2.2,6.4-1.3,9.3c0.9,2.8,3.2,4.8,6.1,5.2c1.5,0.2,3.2,0.2,4.7,0.1
				c1.4-0.1,2.8-0.4,4.2-0.8c3-0.9,5.7-2.4,8.4-3.9c2.8-1.6,5.5-3.4,8.4-4.9c2.5-1.3,5.3-2.6,8.2-2.8c3-0.2,5.6,0.9,7.8,2.8
				c0.6,0.6,1.2,1.3,1.8,1.9c0.7,0.9,1.1,2.1,1.6,3.2c0.6,1.3,1.4,2.7,2.5,3.7c3.8,3.5,8.8-0.6,12.5-2.2c1.5-0.6,3-1.1,4.5-1.4
				c1.5-0.3,2.8,0,4.2,0.5c2.6,0.8,5,2.1,7.6,3.2c2.6,1.1,5.3,2.1,8.1,2.4c3.4,0.3,6.7-0.4,9.8-1.7c4.6-2,8.2-5.4,12.4-8.2
				c3.1-2.1,6.6-4,10.3-4.9c5.2-1.1,9.7,0.8,13.9,3.8c4.9,3.6,9.5,7.7,15.3,9.9c2.4,0.9,5,1.2,7.3,0c2.8-1.4,4.4-4.5,5.6-7.2
				c1.1-2.4,2.4-4.9,5-5.9c2.2-0.8,4.6-0.4,6.7,0.3c11.1,3.5,20.1,13.8,32.6,12.1C234.6,251.8,235.3,243.9,232.9,238.8
				c-0.3-0.7-1.4-0.1-1,0.6c1.4,2.9,1.8,6.7,0,9.5c-0.9,1.3-2.2,2.2-3.8,2.5c-0.9,0.2-1.8,0.1-2.7,0.1c-0.6,0-1.3,0.1-1.9,0
				c-5.9-0.3-11.4-3.7-16.4-6.5c-4.6-2.6-9.6-5.9-14.9-6.4c-2.1-0.2-4.2,0.3-5.8,1.5c-2.5,1.9-3.3,4.7-4.7,7.3
				c-1.3,2.4-3.2,5-6.1,5.4c-3,0.4-6.1-1.3-8.6-2.8c-2.8-1.6-5.4-3.5-7.9-5.5c-1.8-1.4-3.6-2.9-5.6-4c-4.4-2.6-9.3-3.2-14.3-1.5
				c-3.9,1.3-7.4,3.5-10.6,5.9c-3.8,2.9-7.4,5.9-12,7.4c-3.1,1-6.5,1.2-9.7,0.5c-2.8-0.6-5.3-1.8-7.9-3c-2.3-1.1-4.7-2.2-7.3-2.6
				c-2.8-0.5-5.8,0.7-8.3,1.9c-2.2,1-4.4,2.5-6.7,3c-2.6,0.5-4.2-1.4-5.4-3.5c-0.5-0.9-0.9-1.9-1.3-2.8c-0.3-0.8-0.9-1.5-1.5-2.1
				c-1-1.1-2.1-2.2-3.5-3c-2.3-1.4-4.9-1.8-7.5-1.4c-5.9,0.8-11,4.7-16,7.6c-2.7,1.6-5.5,3.1-8.5,4c-1.4,0.4-2.9,0.7-4.4,0.8
				c-0.7,0-1.3-0.1-2-0.1c-1,0-1.9,0-2.8-0.2c-3.3-0.9-4.7-4.2-4.6-7.4c0.1-1.7,0.5-3.7,1.6-5.1c1.5-2,2.9-4,4.3-6
				c5.2-7.7,9.6-16,13.2-24.6c7.4-17.7,11.8-36.7,14.5-55.6c2.9-20.6,3.2-41.5,3-62.3c-0.1-6.7,0.2-13.2,1.5-19.7
				c1-5.3,2.6-10.5,4.8-15.4c4-8.9,9.9-16.8,17.4-23.1c7.2-6,15.7-10.4,24.7-13.1c9-2.7,18.5-3.7,27.8-3c9.3,0.7,18.5,3,26.9,7.1
				c8.5,4.1,16.1,9.9,22.1,17.1c6.6,7.9,11.1,17.3,13.4,27.3c1.4,5.7,2.1,11.6,2.2,17.5c0.1,9-0.1,18,0.1,27
				c0.4,18.1,1.7,36.1,5,53.9c3.2,17.6,8.3,34.9,16.3,50.9c4,7.9,8.6,15.5,13.9,22.6C232.3,240,233.3,239.4,232.9,238.8z"/>
		</g>
	</g>
	<g class="st6">
		<path d="M250.3,239.1c-32.9-43.9-35.9-101-35.2-153.8C213.5-8.1,74.6-8.2,73,85.3c0.3,25.5,0.1,53-4.7,78
			c-4.9,27.2-13.3,53.3-30.5,75.8c-2.9,6-0.9,13.7,6.7,13.1c14.9,1.9,30.2-23.4,42.5-6.6c5.4,14.4,10.5,3.1,21.3,2.1
			c10.1,1.1,18.1,13.6,35.7,0c20.1-16.5,26.8-6.1,35.7,0c10.8,7.5,16.5,9.1,21.3-2.1c7.6-18.1,27.7,8.5,42.5,6.6
			C251.2,252.8,253.3,245.1,250.3,239.1z"/>
		<g>
			<linearGradient id="SVGID_5_" gradientUnits="userSpaceOnUse" x1="144.0115" y1="254.1" x2="144.0115" y2="15.093">
				<stop  offset="0" style="stop-color:#71FFC5"/>
				<stop  offset="1" style="stop-color:#0DBCBC"/>
			</linearGradient>
			<path class="st8" d="M250.9,238.8c-11.1-14.9-19.1-31.7-24.5-49.4c-5.4-17.8-8.1-36.3-9.5-54.8c-0.7-9.2-1-18.5-1.2-27.7
				c-0.1-4.6-0.1-9.2-0.1-13.8c0-3.9,0.2-7.9-0.1-11.8c-0.7-11-3.4-21.9-8.7-31.6c-4.7-8.6-11.3-15.9-19.3-21.6
				c-7.7-5.5-16.6-9.3-25.8-11.4c-9.2-2.1-18.9-2.6-28.3-1.3c-9.4,1.3-18.5,4.2-26.7,8.8C98.4,28.8,91.1,35.3,85.5,43
				c-6.2,8.6-10.1,18.6-11.9,29.1c-1.2,7.1-1.2,14.2-1.1,21.4c0.1,10.6,0,21.3-0.6,31.9c-1,20.5-3.8,41-9.4,60.8
				c-5.2,18.7-13.1,36.6-24.9,52.1c-1.8,2.4-2.2,6.4-1.3,9.3c0.9,2.8,3.2,4.8,6.1,5.2c1.5,0.2,3.2,0.2,4.7,0.1
				c1.4-0.1,2.8-0.4,4.2-0.8c3-0.9,5.7-2.4,8.4-3.9c2.8-1.6,5.5-3.4,8.4-4.9c2.5-1.3,5.3-2.6,8.2-2.8c3-0.2,5.6,0.9,7.8,2.8
				c0.6,0.6,1.2,1.3,1.8,1.9c0.7,0.9,1.1,2.1,1.6,3.2c0.6,1.3,1.4,2.7,2.5,3.7c3.8,3.5,8.8-0.6,12.5-2.2c1.5-0.6,3-1.1,4.5-1.4
				c1.5-0.3,2.8,0,4.2,0.5c2.6,0.8,5,2.1,7.6,3.2c2.6,1.1,5.3,2.1,8.1,2.4c3.4,0.3,6.7-0.4,9.8-1.7c4.6-2,8.2-5.4,12.4-8.2
				c3.1-2.1,6.6-4,10.3-4.9c5.2-1.1,9.7,0.8,13.9,3.8c4.9,3.6,9.5,7.7,15.3,9.9c2.4,0.9,5,1.2,7.3,0c2.8-1.4,4.4-4.5,5.6-7.2
				c1.1-2.4,2.4-4.9,5-5.9c2.2-0.8,4.6-0.4,6.7,0.3c11.1,3.5,20.1,13.8,32.6,12.1C252.5,251.8,253.3,243.9,250.9,238.8
				c-0.3-0.7-1.4-0.1-1,0.6c1.4,2.9,1.8,6.7,0,9.5c-0.9,1.3-2.2,2.2-3.8,2.5c-0.9,0.2-1.8,0.1-2.7,0.1c-0.6,0-1.3,0.1-1.9,0
				c-5.9-0.3-11.4-3.7-16.4-6.5c-4.6-2.6-9.6-5.9-14.9-6.4c-2.1-0.2-4.2,0.3-5.8,1.5c-2.5,1.9-3.3,4.7-4.7,7.3
				c-1.3,2.4-3.2,5-6.1,5.4c-3,0.4-6.1-1.3-8.6-2.8c-2.8-1.6-5.4-3.5-7.9-5.5c-1.8-1.4-3.6-2.9-5.6-4c-4.4-2.6-9.3-3.2-14.3-1.5
				c-3.9,1.3-7.4,3.5-10.6,5.9c-3.8,2.9-7.4,5.9-12,7.4c-3.1,1-6.5,1.2-9.7,0.5c-2.8-0.6-5.3-1.8-7.9-3c-2.3-1.1-4.7-2.2-7.3-2.6
				c-2.8-0.5-5.8,0.7-8.3,1.9c-2.2,1-4.4,2.5-6.7,3c-2.6,0.5-4.2-1.4-5.4-3.5c-0.5-0.9-0.9-1.9-1.3-2.8c-0.3-0.8-0.9-1.5-1.5-2.1
				c-1-1.1-2.1-2.2-3.5-3c-2.3-1.4-4.9-1.8-7.5-1.4c-5.9,0.8-11,4.7-16,7.6c-2.7,1.6-5.5,3.1-8.5,4c-1.4,0.4-2.9,0.7-4.4,0.8
				c-0.7,0-1.3-0.1-2-0.1c-1,0-1.9,0-2.8-0.2c-3.3-0.9-4.7-4.2-4.6-7.4c0.1-1.7,0.5-3.7,1.6-5.1c1.5-2,2.9-4,4.3-6
				c5.2-7.7,9.6-16,13.2-24.6c7.4-17.7,11.8-36.7,14.5-55.6c2.9-20.6,3.2-41.5,3-62.3c-0.1-6.7,0.2-13.2,1.5-19.7
				c1-5.3,2.6-10.5,4.8-15.4c4-8.9,9.9-16.8,17.4-23.1c7.2-6,15.7-10.4,24.7-13.1c9-2.7,18.5-3.7,27.8-3c9.3,0.7,18.5,3,26.9,7.1
				c8.5,4.1,16.1,9.9,22.1,17.1c6.6,7.9,11.1,17.3,13.4,27.3c1.4,5.7,2.1,11.6,2.2,17.5c0.1,9-0.1,18,0.1,27
				c0.4,18.1,1.7,36.1,5,53.9c3.2,17.6,8.3,34.9,16.3,50.9c4,7.9,8.6,15.5,13.9,22.6C250.3,240,251.3,239.4,250.9,238.8z"/>
		</g>
	</g>
	<g>
		<path d="M240.9,239.1c-32.9-43.9-35.9-101-35.2-153.8c-1.6-93.3-140.5-93.4-142.1,0c0.3,25.5,0.1,53-4.7,78
			c-4.9,27.2-13.3,53.3-30.5,75.8c-2.9,6-0.9,13.7,6.7,13.1c14.9,1.9,30.2-23.4,42.5-6.6c5.4,14.4,10.5,3.1,21.3,2.1
			c10.1,1.1,18.1,13.6,35.7,0c20.1-16.5,26.8-6.1,35.7,0c10.8,7.5,16.5,9.1,21.3-2.1c7.6-18.1,27.7,8.5,42.5,6.6
			C241.7,252.8,243.8,245.1,240.9,239.1z"/>
		<g>
			<linearGradient id="SVGID_6_" gradientUnits="userSpaceOnUse" x1="134.5858" y1="254.7076" x2="134.5858" y2="14.4853">
				<stop  offset="0" style="stop-color:#71FFC5"/>
				<stop  offset="1" style="stop-color:#0DBCBC"/>
			</linearGradient>
			<path class="st9" d="M244,237.2c-5.6-7.4-10.4-15.4-14.5-23.7c-2.1-4.2-3.7-7.9-5.3-12.1c-1.6-4.3-3.1-8.6-4.4-13
				c-5.4-17.8-8-35.7-9.4-54c-0.7-9.2-1-18.5-1.2-27.7c-0.1-4.6-0.1-9.2-0.1-13.8c0-3.9,0.2-7.9-0.1-11.8c-0.7-11.5-3.6-23-9.2-33.1
				c-5-9-12-16.7-20.4-22.7c-7.9-5.6-17-9.6-26.5-11.8c-9.5-2.2-19.4-2.7-29.1-1.4c-9.9,1.3-19.5,4.3-28.3,9.2
				c-8.8,5-16.5,11.8-22.4,20C67.1,50.3,63,60.7,61.2,71.3C60,78.7,59.9,86,60,93.5c0.1,10.6,0,21.3-0.6,31.9
				c-1,20.3-3.8,40.3-9.3,60c-5.2,18.5-12.9,35.9-24.6,51.4c-2.3,3-2.7,8.1-1.6,11.6c1.3,4,4.5,6.8,8.6,7.4
				c3.3,0.4,6.9,0.3,10.1-0.7c3.2-1,6.2-2.6,9.1-4.3c2.8-1.6,5.5-3.4,8.4-4.9c0.7-0.4,1.4-0.7,2.1-1c0.2-0.1,1.2-0.5,0.3-0.2
				c0.4-0.1,0.7-0.3,1.1-0.4c0.7-0.2,1.3-0.4,2-0.6c0.3-0.1,0.6-0.1,0.9-0.2c0.4-0.1,0.1-0.2-0.3,0c0.1-0.1,0.4,0,0.6-0.1
				c0.4,0,1.6-0.2,1.9,0c0,0-0.9-0.2-0.3,0c0.1,0,0.3,0.1,0.5,0.1c0.3,0.1,0.7,0.2,1,0.3c0.2,0.1,0.4,0.1,0.6,0.2
				c-0.1,0-0.7-0.4-0.2-0.1c0.3,0.2,0.6,0.3,0.9,0.5c0.3,0.2,0.6,0.4,0.9,0.6c-0.7-0.5,0.2,0.2,0.4,0.4c0.6,0.6,1.1,1.4,1.8,1.9
				c-0.2-0.1-0.1-0.2-0.2-0.4c0.1,0.2,0.2,0.5,0.3,0.7c0.3,0.7,0.6,1.5,1,2.2c0.7,1.5,1.7,3.1,3,4.3c2.3,2.2,5.4,2.8,8.5,1.8
				c2.7-0.9,5.1-2.4,7.7-3.5c-0.8,0.3,0.1,0,0.3-0.1c0.3-0.1,0.7-0.2,1-0.4c0.8-0.3,1.6-0.5,2.4-0.6c0.2,0,0.4-0.1,0.6-0.1
				c-0.2,0-0.8,0-0.1,0c0.6,0-0.8-0.2,0.1,0c0.7,0.1,1.3,0.3,2,0.5c0.6,0.2,1.2,0.4,1.7,0.6c0.2,0.1,1.2,0.5,0.2,0.1
				c0.4,0.2,0.7,0.3,1.1,0.5c1.3,0.6,2.5,1.2,3.8,1.7c3.1,1.4,6.2,2.4,9.6,2.8c3.9,0.4,7.8-0.5,11.3-2.1c4.6-2,8.2-5.4,12.4-8.2
				c1.7-1.2,3.6-2.3,5.5-3.2c0.2-0.1,1.3-0.5,0.6-0.3c0.4-0.1,0.7-0.3,1.1-0.4c0.8-0.3,1.6-0.5,2.4-0.7c0.3-0.1,0.7-0.1,1-0.2
				c0.3,0,0.6,0-0.2,0c0.2,0,0.3,0,0.5,0c0.7,0,1.4-0.1,2.1,0c0.2,0,0.7,0,0.9,0.1c0,0-1-0.2-0.3,0c0.1,0,0.3,0,0.4,0.1
				c0.6,0.1,1.2,0.3,1.8,0.5c0.3,0.1,0.5,0.2,0.8,0.3c0.5,0.2-0.7-0.4,0.1,0c0.6,0.3,1.1,0.5,1.6,0.9c1,0.6,2,1.2,2.9,1.9
				c0.4,0.3,1.1,0.6,1.3,1c-0.3-0.4-0.5-0.4-0.2-0.2c0.1,0.1,0.2,0.2,0.3,0.3c0.3,0.2,0.6,0.4,0.8,0.6c1.1,0.9,2.3,1.8,3.4,2.6
				c3.2,2.3,6.6,4.5,10.3,5.9c3.1,1.2,6.6,1.3,9.6-0.3c3.2-1.7,5.3-5.1,6.7-8.3c0.3-0.7,0.6-1.4,1-2.1c0.2-0.3,0.3-0.6,0.5-0.9
				c0.1-0.1,0.2-0.3,0.3-0.4c-0.5,0.8-0.2,0.2,0,0c0.2-0.2,0.4-0.4,0.6-0.6c0.1-0.1,0.2-0.2,0.3-0.3c0.5-0.5-0.3,0.2-0.3,0.2
				c0-0.1,0.6-0.4,0.6-0.4c0.1-0.1,0.2-0.1,0.3-0.2c0.7-0.4-0.1,0.1-0.2,0.1c0,0,1.4-0.3,1.4-0.4c-0.2,0.3-0.9,0.1-0.4,0.1
				c0.1,0,0.3,0,0.4,0c0.3,0,0.6,0,1,0c0.1,0,0.7,0,0.8,0.1c0,0-0.9-0.2-0.4,0c0.1,0,0.3,0.1,0.4,0.1c0.6,0.1,1.3,0.3,1.9,0.5
				c0.6,0.2,1.2,0.4,1.7,0.6c0.6,0.2-0.1-0.1-0.2-0.1c0.1,0.1,0.3,0.1,0.4,0.2c0.4,0.2,0.8,0.3,1.1,0.5c1.3,0.6,2.7,1.3,4,2.1
				c2.8,1.5,5.5,3.1,8.3,4.6c5.9,3.1,12.1,5.2,18.8,4.2c3.9-0.6,6.9-3.5,8.1-7.2C246.4,244.7,245.6,240.7,244,237.2
				c-0.8-1.8-3.4-2.2-5-1.3c-1.8,1.1-2.2,3.2-1.3,5c0.3,0.6,0.1,0.1,0,0c0.1,0.2,0.1,0.4,0.2,0.6c0.1,0.4,0.2,0.8,0.3,1.2
				c0.1,0.3,0.2,1.3,0.1,0.5c0.1,0.5,0.1,1,0.1,1.4c0,0.4,0,0.7-0.1,1.1c0.1-0.8,0,0-0.1,0.4c-0.1,0.3-0.2,0.7-0.3,1
				c0.3-0.8-0.1,0.1-0.3,0.4c-0.4,0.7,0.4-0.3-0.2,0.3c-0.1,0.1-0.3,0.2-0.4,0.3c-0.3,0.4,0.6-0.3,0.1-0.1c-0.1,0-1.1,0.6-0.6,0.4
				c0.5-0.2-0.1,0-0.2,0.1c-0.2,0.1-0.5,0.1-0.7,0.2c-0.6,0.2-0.1,0,0.1,0c-0.3,0-0.5,0-0.8,0c-0.4,0-0.8,0-1.2,0
				c-0.6,0-1.3,0.1-1.9,0c-0.3,0-0.6-0.1-0.9-0.1c-0.7,0,0.2,0,0.3,0c-0.1,0-0.3-0.1-0.5-0.1c-0.7-0.1-1.4-0.3-2.1-0.5
				c-0.7-0.2-1.3-0.4-1.9-0.6c-0.3-0.1-0.6-0.3-1-0.4c-0.2-0.1-0.6-0.3,0.1,0.1c-0.2-0.1-0.4-0.2-0.6-0.3c-2.8-1.3-5.5-2.8-8.2-4.3
				c-5.1-2.9-10.5-6.3-16.5-6.8c-2.6-0.2-5.3,0.4-7.4,2c-1.4,1-2.5,2.3-3.5,3.7c-0.9,1.5-1.5,3.1-2.3,4.7c-0.4,0.7-0.8,1.4-1.3,2.1
				c-0.1,0.2-0.4,0.5,0.1-0.1c-0.1,0.1-0.2,0.3-0.3,0.4c-0.2,0.3-0.5,0.5-0.8,0.8c-0.6,0.6,0.5-0.3-0.2,0.1
				c-0.2,0.1-0.5,0.3-0.7,0.4c-0.3,0.3,0.7-0.2,0.3-0.1c-0.1,0-0.3,0.1-0.4,0.1c-0.1,0-0.3,0.1-0.4,0.1c-0.7,0.2,0.2,0.1,0.2,0
				c-0.1,0.1-1.6,0.1-1.7,0c0,0,0.8,0.2,0.3,0c-0.1,0-0.3-0.1-0.5-0.1c-0.4-0.1-0.8-0.2-1.2-0.4c-0.3-0.1-0.7-0.2-1-0.4
				c0.8,0.3-0.2-0.1-0.5-0.2c-0.8-0.4-1.6-0.9-2.4-1.3c-1.7-1-3.4-2.1-5-3.3c-0.5-0.3-0.9-0.7-1.4-1c-0.2-0.2-0.5-0.3-0.7-0.5
				c0.7,0.8,0,0-0.3-0.2c-2-1.6-4-3.2-6.2-4.5c-5.1-3-10.9-3.7-16.6-1.8c-4.1,1.4-7.9,3.6-11.3,6.2c-2.1,1.5-4,3.2-6.2,4.6
				c-0.9,0.6-1.9,1.1-2.8,1.6c-0.2,0.1-0.5,0.2-0.7,0.3c-0.6,0.3,0.4-0.2-0.1,0.1c-0.5,0.2-1,0.4-1.5,0.5c-0.8,0.3-1.6,0.5-2.5,0.6
				c-0.2,0-0.4,0.1-0.6,0.1c0.8-0.2,0.3,0,0.1,0c-0.5,0-0.9,0.1-1.4,0.1c-0.7,0-1.5,0-2.2-0.1c-0.2,0-0.7-0.1,0.2,0
				c-0.2,0-0.3-0.1-0.5-0.1c-0.4-0.1-0.8-0.1-1.1-0.2c-1.4-0.3-2.8-0.8-4.1-1.3c-0.9-0.3,0.6,0.3-0.3-0.1c-0.3-0.1-0.6-0.3-0.9-0.4
				c-0.6-0.3-1.3-0.6-1.9-0.9c-2.6-1.2-5.2-2.4-8-2.9c-3.7-0.7-7.3,0.7-10.7,2.2c-1.2,0.6-2.4,1.2-3.6,1.8c-0.3,0.1-0.5,0.2-0.8,0.4
				c-0.1,0-0.3,0.2-0.4,0.2c0,0,0.9-0.3,0.3-0.1c-0.5,0.2-1,0.3-1.5,0.5c-0.7,0.2,0.8,0,0.1,0c-0.2,0-0.5,0-0.7,0
				c-0.4,0.1,0.8,0.3,0.5,0.1c0,0-0.3-0.1-0.3-0.1c0,0-0.7-0.3,0,0c0.8,0.4,0,0,0,0c0,0-0.3-0.2-0.3-0.2c0.1-0.2,0.6,0.6,0.3,0.2
				c-0.2-0.2-0.4-0.4-0.6-0.6c-0.1-0.1-0.2-0.2-0.3-0.4c0.6,0.6,0.2,0.3,0.1,0.1c-0.2-0.4-0.5-0.8-0.7-1.2c-0.2-0.4-0.4-0.8-0.6-1.2
				c-0.1-0.2-0.2-0.4-0.3-0.7c0.1,0.2,0.2,0.5-0.1-0.2c-0.5-1.3-1.3-2.4-2.2-3.4c-1.2-1.3-2.6-2.5-4.1-3.4c-3-1.8-6.4-2.3-9.8-1.7
				c-6.1,0.9-11.5,4.8-16.7,7.9c-1.4,0.8-2.7,1.5-4.1,2.2c-0.3,0.2-0.7,0.3-1,0.5c-0.3,0.1-1.2,0.5-0.4,0.2
				c-0.7,0.3-1.5,0.6-2.3,0.8c-0.7,0.2-1.3,0.4-2,0.5c-0.4,0.1-1.1,0.1-0.3,0.1c-0.4,0-0.8,0.1-1.3,0.1c-0.7,0-1.3-0.1-2-0.1
				c-0.4,0-0.9,0-1.3,0c-0.2,0-0.7-0.1,0,0c-0.2,0-0.5-0.1-0.7-0.2c-0.2,0-0.4-0.1-0.5-0.2c-0.5-0.1,0.5,0.3,0.1,0
				c-0.1-0.1-1-0.7-0.6-0.3c0.4,0.3-0.4-0.4-0.5-0.5c-0.4-0.3,0.3,0.6,0.1,0.1c-0.1-0.2-0.2-0.4-0.3-0.5c-0.1-0.1-0.1-0.3-0.2-0.5
				c0.4,0.6,0.2,0.4,0.1,0.2c-0.1-0.3-0.2-0.7-0.3-1c0-0.2-0.1-0.4-0.1-0.5c0.2,0.8,0,0.4,0,0.2c0-0.5,0-0.9,0-1.4
				c0-0.3,0.2-1.3,0-0.5c0.1-0.4,0.2-0.8,0.3-1.2c0.1-0.4,0.2-0.8,0.4-1.1c0.1-0.2,0.3-0.5,0,0c0.2-0.3,0.3-0.5,0.5-0.8
				c1.5-2,2.9-4,4.3-6c5.4-8,9.8-16.5,13.5-25.4c7.4-17.7,11.8-36.7,14.5-55.6c2.9-20.9,3.3-42,3.1-63.1c0-3.7-0.1-7.4,0.3-11
				c0.1-0.7,0.1-1.4,0.2-2.1c0-0.3,0.1-0.7,0.1-1c0-0.2,0-0.3,0.1-0.5c0.1-0.9-0.1,0.8,0-0.1c0.2-1.4,0.4-2.8,0.7-4.2
				c0.5-2.7,1.2-5.4,2-8c0.4-1.3,0.8-2.6,1.3-3.8c0.2-0.6,0.5-1.2,0.7-1.7c0.1-0.1,0.1-0.3,0.2-0.4c0,0.1-0.3,0.8-0.1,0.2
				c0.1-0.3,0.3-0.6,0.4-0.9c2-4.5,4.6-8.8,7.6-12.8c0.5-0.7-0.5,0.6,0.1-0.1c0.2-0.2,0.4-0.5,0.5-0.7c0.4-0.5,0.8-0.9,1.2-1.4
				c0.8-0.9,1.6-1.8,2.4-2.7c1.6-1.7,3.3-3.3,5.1-4.8c0.4-0.4,0.9-0.7,1.3-1.1c0.4-0.3,0.6-0.6,0.1-0.1c0.3-0.2,0.6-0.4,0.8-0.6
				c1-0.7,1.9-1.4,2.9-2c1.9-1.3,3.9-2.4,5.9-3.5c1-0.6,2.1-1.1,3.2-1.6c0.5-0.2,1-0.5,1.5-0.7c0.1-0.1,0.3-0.1,0.4-0.2
				c0.4-0.2-0.1,0.2-0.3,0.1c0.2,0,0.7-0.3,0.9-0.4c2.2-0.9,4.4-1.6,6.6-2.3c2.2-0.7,4.5-1.2,6.8-1.7c1.1-0.2,2.3-0.4,3.4-0.6
				c0.3,0,0.6-0.1,0.8-0.1c1-0.1-0.6,0.1,0.1,0c0.6-0.1,1.2-0.2,1.9-0.2c4.7-0.5,9.4-0.6,14-0.2c1.1,0.1,2.3,0.2,3.4,0.3
				c0.3,0,0.6,0.1,0.8,0.1c0.9,0.1-0.8-0.1,0.1,0c0.6,0.1,1.2,0.2,1.8,0.3c2.3,0.4,4.6,0.9,6.9,1.5c2.3,0.6,4.5,1.3,6.7,2.1
				c1.1,0.4,2.3,0.8,3.3,1.3c-0.7-0.3-0.3-0.1,0.1,0c0.3,0.1,0.5,0.2,0.8,0.3c0.5,0.2,1.1,0.5,1.6,0.7c4.2,2,8.2,4.5,11.9,7.3
				c0.4,0.3-0.6-0.5-0.2-0.2c0.1,0.1,0.2,0.2,0.3,0.3c0.2,0.2,0.4,0.3,0.7,0.5c0.5,0.4,0.9,0.8,1.4,1.1c0.9,0.8,1.8,1.6,2.7,2.4
				c1.7,1.6,3.3,3.3,4.8,5.1c0.4,0.4,0.7,0.9,1.1,1.3c0.6,0.8-0.3-0.4,0.1,0.1c0.2,0.3,0.4,0.6,0.7,0.9c0.7,1,1.4,2,2.1,3.1
				c1.3,2.1,2.6,4.2,3.7,6.4c0.6,1.2,1.1,2.3,1.6,3.5c0.1,0.2,0.2,0.6-0.1-0.2c0.1,0.1,0.1,0.3,0.2,0.4c0.1,0.3,0.2,0.6,0.3,0.9
				c0.2,0.6,0.5,1.2,0.7,1.9c0.9,2.5,1.7,5.1,2.3,7.7c0.3,1.4,0.6,2.8,0.9,4.2c0.1,0.7,0.2,1.3,0.3,2c0.1,0.3,0.1,0.7,0.2,1
				c0,0.2,0.1,0.7,0-0.2c0,0.2,0.1,0.4,0.1,0.6c0.4,3,0.6,6,0.6,9c0.1,9-0.1,18,0.1,27c0.4,18.3,1.8,36.7,5.1,54.7
				c3.2,17.8,8.5,35.4,16.6,51.6c4,7.9,8.6,15.5,13.9,22.6c1.2,1.6,3.2,2.4,5,1.3C244.3,241.3,245.2,238.8,244,237.2z"/>
		</g>
	</g>
	<linearGradient id="SVGID_7_" gradientUnits="userSpaceOnUse" x1="81.5633" y1="81.1836" x2="127.2935" y2="81.1836">
		<stop  offset="0" style="stop-color:#71FFC5"/>
		<stop  offset="1" style="stop-color:#0DBCBC"/>
	</linearGradient>
	<path class="st10" d="M81.6,92.9c0.6-13,11.3-23.4,24.4-23.4c6.2,0,11.9,2.3,16.2,6.1l5.1-5.3v17.4h-17l5.8-5.8l0,0
		c0,0-0.1,0-0.1-0.1c-3.5-5.1-9.1-8.5-15.4-8.5C90.4,73.3,82.1,82,81.6,92.9z"/>
	<linearGradient id="SVGID_8_" gradientUnits="userSpaceOnUse" x1="140.7294" y1="107.2406" x2="187.3607" y2="107.2406">
		<stop  offset="0" style="stop-color:#71FFC5"/>
		<stop  offset="1" style="stop-color:#0DBCBC"/>
	</linearGradient>
	<path class="st11" d="M187.4,96.1c-1.1,12.5-11.6,22.4-24.4,22.4c-6.3,0-12-2.3-16.3-6.2l-6,6.2V101h17l-4.9,4.9l0,0
		c0.1,0,0.1,0.1,0.2,0.1c3.5,5.2,9.1,8.5,15.4,8.5C178.3,114.6,186.4,106.5,187.4,96.1z"/>
	<linearGradient id="SVGID_9_" gradientUnits="userSpaceOnUse" x1="81.5987" y1="93.9514" x2="187.3607" y2="93.9514">
		<stop  offset="0" style="stop-color:#71FFC5"/>
		<stop  offset="1" style="stop-color:#0DBCBC"/>
	</linearGradient>
	<path class="st12" d="M151.3,83.4l-12.7,12.7L123.7,111l-0.1-0.1c-4.4,4.6-10.7,7.5-17.6,7.5c-13,0-23.6-10.1-24.4-22.8
		c0.8,10.6,9,19,19,19c6.3,0,12-3.4,15.4-8.5c0.7-0.5,1.3-1.1,1.8-1.8l27.5-27.5l0,0c4.4-4.6,10.8-7.3,17.6-7.3
		c12.8,0,23.3,9.8,24.4,22.4c-1-10.4-9.1-18.5-19-18.5c-6.4,0-12,3.4-15.4,8.5c0,0,0,0,0,0c-0.5,0.4-0.9,0.8-1.3,1.2l0,0L151.3,83.4
		z"/>
	<path class="st13" d="M116,106.1c-3.5,5.2-9.1,8.5-15.4,8.5c-10.2,0-18.5-8.7-19-19.6c0-0.1,0-0.3,0-0.4c0-0.2,0-0.4,0-0.6
		c0-0.2,0-0.4,0-0.6c0-0.1,0-0.3,0-0.4c0.5-10.9,8.8-19.6,19-19.6c6.1,0,11.5,3.1,15,7.9c0.1,0.1-0.1,0.2-0.1,0.1
		c-2.6-2-5.9-3.2-9.5-3.2c-9,0-16.2,7.5-15.7,16.5c0.4,8,6.8,14.5,14.8,14.9C109.3,109.9,113.1,108.5,116,106.1z"/>
	<path class="st13" d="M187.7,93.9c0,0.2,0,0.4,0,0.6c0,0.5,0,1-0.1,1.5c-1,10.4-9.1,18.5-19.1,18.5c-6.4,0-12-3.4-15.5-8.5
		c0,0,0,0,0,0c2.7,2.3,6.3,3.6,10.1,3.6c8.7,0,15.8-7,15.8-15.7c0-8.7-7.1-15.7-15.8-15.7c-3.8,0-7.3,1.4-10.1,3.6c0,0,0,0,0,0
		c3.5-5.2,9.1-8.5,15.5-8.5c9.9,0,18.1,8.1,19.1,18.5c0,0.5,0.1,1,0.1,1.5C187.6,93.5,187.7,93.7,187.7,93.9z"/>
</g>
</svg>
