<?xml version="1.0" encoding="utf-8"?>
<!-- Generator: Adobe Illustrator 25.2.3, SVG Export Plug-In . SVG Version: 6.00 Build 0)  -->
<svg version="1.1" id="Calque_1" xmlns="http://www.w3.org/2000/svg" xmlns:xlink="http://www.w3.org/1999/xlink" x="0px" y="0px"
	 viewBox="0 0 625 82.5" style="enable-background:new 0 0 625 82.5;" xml:space="preserve">
<style type="text/css">
	.st0{fill:url(#SVGID_1_);stroke:url(#SVGID_2_);stroke-width:1.583;stroke-miterlimit:10;}
	.st1{fill:url(#SVGID_3_);stroke:url(#SVGID_4_);stroke-width:1.583;stroke-miterlimit:10;}
	.st2{fill:url(#SVGID_5_);stroke:url(#SVGID_6_);stroke-width:1.583;stroke-miterlimit:10;}
	.st3{fill:url(#SVGID_7_);stroke:url(#SVGID_8_);stroke-width:1.583;stroke-miterlimit:10;}
	.st4{fill:url(#SVGID_9_);stroke:url(#SVGID_10_);stroke-width:1.583;stroke-miterlimit:10;}
	.st5{fill:url(#SVGID_11_);stroke:url(#SVGID_12_);stroke-width:1.583;stroke-miterlimit:10;}
	.st6{fill:url(#SVGID_13_);stroke:url(#SVGID_14_);stroke-width:1.583;stroke-miterlimit:10;}
	.st7{fill:url(#SVGID_15_);stroke:url(#SVGID_16_);stroke-width:1.583;stroke-miterlimit:10;}
</style>
<g>
	<linearGradient id="SVGID_1_" gradientUnits="userSpaceOnUse" x1="0.7915" y1="41.2408" x2="81.1351" y2="41.2408">
		<stop  offset="0" style="stop-color:#000000"/>
		<stop  offset="0.5" style="stop-color:#001E18"/>
	</linearGradient>
	<linearGradient id="SVGID_2_" gradientUnits="userSpaceOnUse" x1="0" y1="41.2408" x2="81.9266" y2="41.2408">
		<stop  offset="0" style="stop-color:#000C0A"/>
		<stop  offset="1" style="stop-color:#6EFDC5"/>
	</linearGradient>
	<path class="st0" d="M81.1,36.8v6.7c0,11.6-3.6,20.9-10.8,27.8c-7.2,6.9-16.4,10.4-27.5,10.4c-12.1,0-22.1-3.9-30.1-11.7
		c-8-7.8-11.9-17.3-11.9-28.7s3.9-20.9,11.8-28.8C20.5,4.7,30.2,0.8,41.6,0.8c7.3,0,13.9,1.6,19.9,4.9c6,3.3,10.7,7.6,14.1,12.9
		l-15.1,8.7c-1.7-2.7-4.2-4.9-7.6-6.6c-3.4-1.7-7.2-2.6-11.4-2.6c-6.6,0-12.1,2.2-16.4,6.6c-4.3,4.4-6.5,10-6.5,16.8
		c0,6.7,2.2,12.2,6.7,16.5c4.4,4.3,10.4,6.4,17.8,6.4c10.3,0,16.9-4,19.9-12H42.1V36.8H81.1z"/>
	<linearGradient id="SVGID_3_" gradientUnits="userSpaceOnUse" x1="259.4973" y1="41.2408" x2="317.2828" y2="41.2408">
		<stop  offset="0" style="stop-color:#000000"/>
		<stop  offset="0.5" style="stop-color:#001E18"/>
	</linearGradient>
	<linearGradient id="SVGID_4_" gradientUnits="userSpaceOnUse" x1="258.7058" y1="41.2408" x2="318.0743" y2="41.2408">
		<stop  offset="0" style="stop-color:#000C0A"/>
		<stop  offset="1" style="stop-color:#6EFDC5"/>
	</linearGradient>
	<path class="st1" d="M317.3,2.3v17.1h-20v60.7h-17.8V19.5h-20V2.3H317.3z"/>
	<linearGradient id="SVGID_5_" gradientUnits="userSpaceOnUse" x1="89.2565" y1="41.2408" x2="149.2637" y2="41.2408">
		<stop  offset="0" style="stop-color:#000000"/>
		<stop  offset="0.5" style="stop-color:#001E18"/>
	</linearGradient>
	<linearGradient id="SVGID_6_" gradientUnits="userSpaceOnUse" x1="88.465" y1="41.2408" x2="150.0551" y2="41.2408">
		<stop  offset="0" style="stop-color:#000C0A"/>
		<stop  offset="1" style="stop-color:#6EFDC5"/>
	</linearGradient>
	<path class="st2" d="M138.9,41.2c0-10.2,3.9-19.4,10.4-26.2V2.3h-17.8v29.8H107V2.3H89.3v77.8H107V49.2h24.4v30.9h17.8V67.5
		C142.8,60.6,138.9,51.4,138.9,41.2z"/>
	<linearGradient id="SVGID_7_" gradientUnits="userSpaceOnUse" x1="201.2636" y1="41.2408" x2="256.1238" y2="41.2408">
		<stop  offset="0" style="stop-color:#000000"/>
		<stop  offset="0.5" style="stop-color:#001E18"/>
	</linearGradient>
	<linearGradient id="SVGID_8_" gradientUnits="userSpaceOnUse" x1="200.1269" y1="41.2408" x2="256.9153" y2="41.2408">
		<stop  offset="0" style="stop-color:#000C0A"/>
		<stop  offset="1" style="stop-color:#6EFDC5"/>
	</linearGradient>
	<path class="st3" d="M254.5,49.3c-1.1-2.5-2.3-4.5-3.7-6c-1.4-1.5-3.4-3-6-4.3c-2.6-1.4-4.8-2.4-6.5-2.9c-1.7-0.6-4.1-1.4-7.2-2.3
		c-5.7-1.7-9.5-3.3-11.3-4.7c-1.8-1.4-2.7-3.1-2.7-5c0-1.6,0.7-3,2.2-4.2c1.4-1.1,3.5-1.7,6.2-1.7c3.4,0,6.1,0.8,8.2,2.3
		c2.1,1.5,3.8,3.8,5.2,6.7l15-8.8c-2.8-5.7-6.7-10.1-11.6-13.1c-4.9-3-10.5-4.5-16.9-4.5c-7.1,0-13.2,2.1-18.4,6.4
		c-1.8,1.5-3.3,3.2-4.5,5.1c8,7,13.1,17.4,13.1,28.9c0,1.6-0.1,3.1-0.3,4.6c2,0.8,4.3,1.6,6.8,2.3c6.2,1.7,10.5,3.2,12.7,4.5
		c2.3,1.3,3.4,3.1,3.4,5.4c0,4.2-3.5,6.3-10.6,6.3c-6.8,0-11.9-2.8-15.1-8.3c-2.5,6-6.5,11.2-11.4,15.2c1.7,2,3.8,3.8,6.1,5.3
		c5.3,3.4,11.9,5.2,19.8,5.2c8.6,0,15.6-2.1,20.9-6.4c5.3-4.3,8-10.1,8-17.5C256.1,54.6,255.6,51.8,254.5,49.3z"/>
	<g>
		<linearGradient id="SVGID_9_" gradientUnits="userSpaceOnUse" x1="318.849" y1="41.2408" x2="378.8566" y2="41.2408">
			<stop  offset="0" style="stop-color:#000000"/>
			<stop  offset="0.5" style="stop-color:#001E18"/>
		</linearGradient>
		<linearGradient id="SVGID_10_" gradientUnits="userSpaceOnUse" x1="317.8728" y1="41.2408" x2="379.648" y2="41.2408">
			<stop  offset="0" style="stop-color:#000C0A"/>
			<stop  offset="1" style="stop-color:#6EFDC5"/>
		</linearGradient>
		<path class="st4" d="M350,81.7c-7.9,0-14.5-1.7-19.8-5.2c-5.3-3.4-9.1-8.1-11.3-14.1l15.3-8.9c3.1,7.2,8.6,10.8,16.3,10.8
			c7,0,10.6-2.1,10.6-6.3c0-2.3-1.1-4.1-3.4-5.4c-2.3-1.3-6.5-2.8-12.7-4.5c-3.3-0.9-6.1-1.9-8.6-3c-2.4-1.1-4.8-2.6-7.2-4.4
			c-2.3-1.8-4.1-4.1-5.3-6.8c-1.2-2.7-1.8-5.9-1.8-9.4c0-7.2,2.6-12.9,7.7-17.2c5.1-4.3,11.3-6.4,18.4-6.4c6.4,0,12,1.5,16.9,4.5
			c4.9,3,8.7,7.4,11.6,13.1l-15,8.8c-1.4-3-3.1-5.2-5.2-6.7c-2.1-1.5-4.8-2.3-8.2-2.3c-2.7,0-4.7,0.6-6.2,1.7
			c-1.4,1.1-2.2,2.5-2.2,4.2c0,1.9,0.9,3.6,2.7,5c1.8,1.4,5.6,3,11.3,4.7c3.1,1,5.5,1.7,7.2,2.3c1.7,0.6,3.9,1.6,6.5,2.9
			c2.6,1.4,4.6,2.8,6,4.3c1.4,1.5,2.6,3.5,3.7,6c1.1,2.5,1.6,5.3,1.6,8.5c0,7.4-2.7,13.2-8,17.5C365.5,79.6,358.6,81.7,350,81.7z"/>
		<linearGradient id="SVGID_11_" gradientUnits="userSpaceOnUse" x1="379.9676" y1="41.2408" x2="488.648" y2="41.2408">
			<stop  offset="0" style="stop-color:#000000"/>
			<stop  offset="0.5" style="stop-color:#001E18"/>
		</linearGradient>
		<linearGradient id="SVGID_12_" gradientUnits="userSpaceOnUse" x1="378.9284" y1="41.2408" x2="489.6873" y2="41.2408">
			<stop  offset="0" style="stop-color:#000C0A"/>
			<stop  offset="1" style="stop-color:#6EFDC5"/>
		</linearGradient>
		<path class="st5" d="M401.4,80.1L380,2.3h18.7l13.4,54.5l15-54.5h14.4l15,54.5L470,2.3h18.7l-21.4,77.8H447l-12.7-45.9l-12.7,45.9
			H401.4z"/>
		<linearGradient id="SVGID_13_" gradientUnits="userSpaceOnUse" x1="485.3135" y1="41.2408" x2="560.8785" y2="41.2408">
			<stop  offset="0" style="stop-color:#000000"/>
			<stop  offset="0.5" style="stop-color:#001E18"/>
		</linearGradient>
		<linearGradient id="SVGID_14_" gradientUnits="userSpaceOnUse" x1="484.2084" y1="41.2408" x2="561.9836" y2="41.2408">
			<stop  offset="0" style="stop-color:#000C0A"/>
			<stop  offset="1" style="stop-color:#6EFDC5"/>
		</linearGradient>
		<path class="st6" d="M541.4,80.1l-3.9-12.2h-28.9l-3.9,12.2h-19.4l26.4-77.8h22.7l26.4,77.8H541.4z M514,51.2h18.2l-9.1-28.6
			L514,51.2z"/>
		<linearGradient id="SVGID_15_" gradientUnits="userSpaceOnUse" x1="567.5458" y1="41.2408" x2="624.2193" y2="41.2408">
			<stop  offset="0" style="stop-color:#000000"/>
			<stop  offset="0.5" style="stop-color:#001E18"/>
		</linearGradient>
		<linearGradient id="SVGID_16_" gradientUnits="userSpaceOnUse" x1="566.7543" y1="41.2408" x2="625.0108" y2="41.2408">
			<stop  offset="0" style="stop-color:#000C0A"/>
			<stop  offset="1" style="stop-color:#6EFDC5"/>
		</linearGradient>
		<path class="st7" d="M597,2.3c7.6,0,14.1,2.6,19.3,7.8c5.3,5.2,7.9,11.5,7.9,18.9c0,7.4-2.6,13.7-7.9,18.9
			c-5.3,5.2-11.7,7.8-19.3,7.8h-11.7v24.4h-17.8V2.3H597z M597,39c2.7,0,5-1,6.8-2.9c1.8-1.9,2.7-4.3,2.7-7.1c0-2.8-0.9-5.2-2.7-7.1
			c-1.8-1.9-4-2.9-6.8-2.9h-11.7v20H597z"/>
	</g>
</g>
</svg>
