<?xml version="1.0" encoding="utf-8"?>
<!-- Generator: Adobe Illustrator 27.7.0, SVG Export Plug-In . SVG Version: 6.00 Build 0)  -->
<svg version="1.1" id="Calque_1" xmlns="http://www.w3.org/2000/svg" xmlns:xlink="http://www.w3.org/1999/xlink" x="0px" y="0px"
	 viewBox="0 0 1081 1081" style="enable-background:new 0 0 1081 1081;" xml:space="preserve">
<style type="text/css">
	.st0{fill:#05110F;}
	.st1{fill:url(#SVGID_1_);}
</style>
<g>
	<path class="st0" d="M923.8,1081H157.1C70.4,1081,0,1010.6,0,923.8V157.1C0,70.4,70.4,0,157.1,0h766.7
		c86.8,0,157.1,70.4,157.1,157.1v766.7C1081,1010.6,1010.6,1081,923.8,1081z"/>
	<circle cx="540.5" cy="540.5" r="451.7"/>
	<linearGradient id="SVGID_1_" gradientUnits="userSpaceOnUse" x1="505.3688" y1="900.1624" x2="505.3688" y2="180.79">
		<stop  offset="0" style="stop-color:#83FFEA"/>
		<stop  offset="1" style="stop-color:#10A7B2"/>
	</linearGradient>
	<path class="st1" d="M624.4,210.8c40,40,40,104.9,0,144.9l-14.8,14.8l-70.2,70.2l-57.7,57.7l-8.3,8.3
		c-71.7,77.1-41.3,189.4-38.9,197.8c-131-48.2-192.6-225.2-118.4-327.1c9.7-13.3,21.7-24.8,33.5-36.6l130.1-130.1
		c20-20,46.2-30,72.4-30C578.2,180.8,604.4,190.8,624.4,210.8z M550.8,496.2l-37.9,37.9c-1.3,1.3-2.5,2.6-3.7,3.9
		c-0.6,0.7-1.2,1.4-1.8,2.1c-127.3,146.5,33.3,365.1,171.8,360c-72-58.6-74.7-162.1-22.8-218.2c0.7-0.7,1.4-1.4,2.1-2.1l5.1-5.1
		l32.8-32.8c4.8-4.8,9-9.9,12.7-15.4c11.7-17.3,17.5-37.4,17.5-57.5c0-12.6-2.3-25.3-7-37.2c-5-13-12.8-25.1-23.2-35.6
		C656.3,456,591,456,550.8,496.2z"/>
</g>
</svg>
