<?xml version="1.0" encoding="utf-8"?>
<!-- Generator: Adobe Illustrator 25.2.3, SVG Export Plug-In . SVG Version: 6.00 Build 0)  -->
<svg version="1.1" id="Calque_1" xmlns="http://www.w3.org/2000/svg" xmlns:xlink="http://www.w3.org/1999/xlink" x="0px" y="0px"
	 viewBox="0 0 32 32" style="enable-background:new 0 0 32 32;" xml:space="preserve">
<style type="text/css">
	.st0{fill:#6CFFCA;}
</style>
<path class="st0" d="M26.9,8.2H5.1C3.7,8.2,2.5,7,2.5,5.6v0C2.5,4.2,3.7,3,5.1,3h21.7c1.4,0,2.6,1.2,2.6,2.6v0
	C29.5,7,28.3,8.2,26.9,8.2z"/>
<path class="st0" d="M26.9,18.6H5.1c-1.4,0-2.6-1.2-2.6-2.6v0c0-1.4,1.2-2.6,2.6-2.6h21.7c1.4,0,2.6,1.2,2.6,2.6v0
	C29.5,17.4,28.3,18.6,26.9,18.6z"/>
<path class="st0" d="M26.9,29H5.1c-1.4,0-2.6-1.2-2.6-2.6v0c0-1.4,1.2-2.6,2.6-2.6h21.7c1.4,0,2.6,1.2,2.6,2.6v0
	C29.5,27.8,28.3,29,26.9,29z"/>
</svg>
