<?xml version="1.0" encoding="utf-8"?>
<!-- Generator: Adobe Illustrator 25.2.3, SVG Export Plug-In . SVG Version: 6.00 Build 0)  -->
<svg version="1.1" id="Calque_1" xmlns="http://www.w3.org/2000/svg" xmlns:xlink="http://www.w3.org/1999/xlink" x="0px" y="0px"
	 viewBox="0 0 32 32" style="enable-background:new 0 0 32 32;" xml:space="preserve">
<style type="text/css">
	.st0{fill:#53EBC2;}
</style>
<g>
	<path class="st0" d="M14.8,31c-3.3-0.3-6.1-1.6-8.4-4.1S3,21.5,3,18.1c0-2.1,0.5-4,1.4-5.9s2.3-3.3,4-4.5l1.7,1.7
		c-1.5,0.9-2.7,2.1-3.5,3.7c-0.8,1.6-1.3,3.2-1.3,5c0,2.7,0.9,5,2.7,7s4,3.1,6.7,3.4V31z M17.2,31v-2.4c2.7-0.3,4.9-1.5,6.7-3.4
		s2.6-4.3,2.6-7c0-2.9-1-5.4-3.1-7.5S19,7.6,16,7.6h-0.8l2.4,2.4l-1.7,1.7l-5.4-5.4L15.9,1l1.7,1.7l-2.4,2.4H16
		c3.6,0,6.7,1.3,9.2,3.8s3.8,5.6,3.8,9.2c0,3.4-1.1,6.3-3.4,8.8S20.6,30.7,17.2,31z"/>
</g>
</svg>
