<?xml version="1.0" encoding="utf-8"?>
<!-- Generator: Adobe Illustrator 25.2.3, SVG Export Plug-In . SVG Version: 6.00 Build 0)  -->
<svg version="1.1" id="Calque_1" xmlns="http://www.w3.org/2000/svg" xmlns:xlink="http://www.w3.org/1999/xlink" x="0px" y="0px"
	 viewBox="0 0 50 50" style="enable-background:new 0 0 50 50;" xml:space="preserve">
<style type="text/css">
	.st0{fill:#001E18;}
	.st1{fill:#000C0A;}
	.st2{opacity:0.19;fill:none;stroke:url(#SVGID_1_);stroke-width:0.1812;stroke-miterlimit:10;}
	.st3{fill:url(#SVGID_2_);}
	.st4{fill:url(#SVGID_3_);}
	.st5{fill:url(#SVGID_4_);}
	.st6{fill:#1D7060;}
</style>
<circle class="st0" cx="25" cy="25" r="21.8"/>
<circle class="st1" cx="25" cy="25" r="20.6"/>
<linearGradient id="SVGID_1_" gradientUnits="userSpaceOnUse" x1="-9.062105e-02" y1="25" x2="50.0906" y2="25">
	<stop  offset="0" style="stop-color:#71FFC5"/>
	<stop  offset="1" style="stop-color:#0DBCBC"/>
</linearGradient>
<circle class="st2" cx="25" cy="25" r="25"/>
<g>
	<linearGradient id="SVGID_2_" gradientUnits="userSpaceOnUse" x1="0.2233" y1="19.035" x2="21.5881" y2="19.035">
		<stop  offset="0" style="stop-color:#71FFC5"/>
		<stop  offset="1" style="stop-color:#0DBCBC"/>
	</linearGradient>
	<path class="st3" d="M0.2,24.5c0.3-6.1,5.3-10.9,11.4-10.9c2.9,0,5.5,1.1,7.6,2.9l2.4-2.5v8.1h-7.9l2.7-2.7l0,0c0,0,0,0,0,0
		c-1.6-2.4-4.2-4-7.2-4C4.4,15.4,0.5,19.4,0.2,24.5z"/>
	<linearGradient id="SVGID_3_" gradientUnits="userSpaceOnUse" x1="27.8653" y1="31.2086" x2="49.6511" y2="31.2086">
		<stop  offset="0" style="stop-color:#71FFC5"/>
		<stop  offset="1" style="stop-color:#0DBCBC"/>
	</linearGradient>
	<path class="st4" d="M49.7,26c-0.5,5.9-5.4,10.4-11.4,10.4c-2.9,0-5.6-1.1-7.6-2.9l-2.8,2.9v-8.1h7.9l-2.3,2.3l0,0
		c0,0,0.1,0,0.1,0.1c1.6,2.4,4.2,4,7.2,4C45.4,34.6,49.2,30.8,49.7,26z"/>
	<linearGradient id="SVGID_4_" gradientUnits="userSpaceOnUse" x1="0.2398" y1="25" x2="49.6511" y2="25">
		<stop  offset="0" style="stop-color:#71FFC5"/>
		<stop  offset="1" style="stop-color:#0DBCBC"/>
	</linearGradient>
	<path class="st5" d="M32.8,20.1L26.9,26l-7,7l0,0c-2.1,2.2-5,3.5-8.2,3.5c-6.1,0-11-4.7-11.4-10.7c0.4,5,4.2,8.9,8.9,8.9
		c3,0,5.6-1.6,7.2-4c0.3-0.3,0.6-0.5,0.9-0.8L30,17l0,0c2.1-2.1,5-3.4,8.2-3.4c6,0,10.9,4.6,11.4,10.4c-0.5-4.9-4.3-8.7-8.9-8.7
		c-3,0-5.6,1.6-7.2,4c0,0,0,0,0,0c-0.2,0.2-0.4,0.4-0.6,0.6l0,0L32.8,20.1z"/>
	<path class="st6" d="M16.3,30.7c-1.6,2.4-4.2,4-7.2,4c-4.8,0-8.7-4.1-8.9-9.1c0-0.1,0-0.1,0-0.2c0-0.1,0-0.2,0-0.3
		c0-0.1,0-0.2,0-0.3c0-0.1,0-0.1,0-0.2c0.2-5.1,4.1-9.1,8.9-9.1c2.8,0,5.4,1.4,7,3.7c0,0,0,0.1-0.1,0.1c-1.2-0.9-2.8-1.5-4.4-1.5
		c-4.2,0-7.6,3.5-7.3,7.7c0.2,3.7,3.2,6.8,6.9,7C13.2,32.4,15,31.8,16.3,30.7z"/>
	<path class="st6" d="M49.8,25c0,0.1,0,0.2,0,0.3c0,0.2,0,0.5,0,0.7c-0.5,4.9-4.3,8.7-8.9,8.7c-3,0-5.6-1.6-7.2-4c0,0,0,0,0,0
		c1.3,1.1,2.9,1.7,4.7,1.7c4.1,0,7.4-3.3,7.4-7.4c0-4.1-3.3-7.4-7.4-7.4c-1.8,0-3.4,0.6-4.7,1.7c0,0,0,0,0,0c1.6-2.4,4.3-4,7.3-4
		c4.6,0,8.5,3.8,8.9,8.7c0,0.2,0,0.5,0,0.7C49.8,24.8,49.8,24.9,49.8,25z"/>
</g>
</svg>
