<?xml version="1.0" encoding="utf-8"?>
<!-- Generator: Adobe Illustrator 27.7.0, SVG Export Plug-In . SVG Version: 6.00 Build 0)  -->
<svg version="1.1" id="Calque_1" xmlns="http://www.w3.org/2000/svg" xmlns:xlink="http://www.w3.org/1999/xlink" x="0px" y="0px"
	 viewBox="0 0 147.5 149.3" style="enable-background:new 0 0 147.5 149.3;" xml:space="preserve">
<style type="text/css">
	.st0{fill:#220C3D;}
	.st1{fill:#D900FF;}
</style>
<path class="st0" d="M73.7,0C46.5,0,22.6,14.6,9.6,36.4c-0.4,7.3-1,15.1,1.5,15.9c3.7,1.2,9-15.7,19.3-16c5.1-0.1,9.7,3.8,10.7,4.7
	c5.7,4.9,4.7,9.8,8.7,11.3c4.5,1.8,12.3-2.2,14.7-8c3.8-9.5-8.8-19.8-5.3-24c2.4-2.9,11.6-1.8,15.3,3.3c5.1,7-4.2,15.9,0.7,26.7
	c2.6,5.7,8.7,10.9,13.3,10c6.7-1.4,5.6-14.5,14-17.3c4.8-1.6,11.5,0.7,13.3,4.7c2.7,5.8-6.7,11.4-4.7,19.3
	c1.7,6.7,10.8,12.1,15.3,10c6.2-2.9,1.3-18.3,7.3-21.3c3.9-1.9,8.6,3.1,13.7,7.3C141.8,27.3,111,0,73.7,0z"/>
<path class="st0" d="M73.7,149.3c27.3,0,51.1-14.6,64.1-36.4c0.4-7.3,1-15.1-1.5-15.9c-3.7-1.2-9,15.7-19.3,16
	c-5.1,0.1-9.7-3.8-10.7-4.7c-5.7-4.9-4.7-9.8-8.7-11.3c-4.5-1.8-12.3,2.2-14.7,8c-3.8,9.5,8.8,19.8,5.3,24
	c-2.4,2.9-11.6,1.8-15.3-3.3c-5.1-7,4.2-15.9-0.7-26.7C69.8,93.3,63.7,88,59,89c-6.7,1.4-5.6,14.5-14,17.3
	c-4.8,1.6-11.5-0.7-13.3-4.7c-2.7-5.8,6.7-11.4,4.7-19.3c-1.7-6.7-10.8-12.1-15.3-10c-6.2,2.9-1.3,18.3-7.3,21.3
	C9.8,95.6,5.1,90.5,0,86.4C5.6,122,36.5,149.3,73.7,149.3z"/>
<g id="Calque_4_00000080891271098889932520000007934384584000573344_">
	<g id="XMLID_00000011743114978365471210000000122956756220229511_">
		<g>
			<g id="XMLID_00000093164112123651223940000007017173007368888762_">
				<path class="st1" d="M107.3,52.5c-1.1,0.4-2.2,0.7-3.3,1.1c1.5-1.5,2.6-3.3,3-5.5c0-0.4,0-1.1-0.4-1.1c-0.4,0-1.1,0-1.5,0
					c-2.6,1.5-5.2,2.6-7.7,3c-3-2.6-6.6-4.4-10.7-4.4c-8.1,0-15.1,6.6-15.1,15.1c0,0.7,0,1.5,0,1.8c-10.3-0.7-19.9-5.9-26.6-14
					c-0.4-0.4-0.7-0.4-1.1-0.4s-0.7,0.4-0.7,0.7c-1.5,2.2-2.2,4.8-2.2,7.7c0,3.7,1.5,7,3.7,9.6c-0.7-0.4-1.5-0.4-1.8-0.7
					c0,0-0.4,0-0.7,0c-0.4,0.4-0.7,0.7-0.7,1.1c0,0,0,0,0,0.4c0,5.5,3,10.3,7.4,12.9c-0.4,0-0.7,0-1.1,0c-0.4,0-0.7,0-1.1,0.4
					s-0.4,0.7-0.4,1.1c1.5,5.2,5.9,8.9,11.1,10c-4.4,2.6-9.2,4.1-14.4,4.1c-1.1,0-2.2,0-3.3-0.4c-0.4,0-1.1,0.4-1.1,0.7
					c0,0.4,0,1.1,0.4,1.5c6.6,4.1,14,6.3,21.8,6.3c15.5,0,25.1-7.4,30.2-13.3c6.6-7.4,10.3-17.7,10.3-27.3c0-0.4,0-0.7,0-1.1
					c2.6-1.8,4.8-4.4,6.6-7c0.4-0.4,0.4-1.1,0-1.5C108,52.5,107.7,52.5,107.3,52.5z"/>
			</g>
		</g>
	</g>
</g>
</svg>
