<?xml version="1.0" encoding="utf-8"?>
<!-- Generator: Adobe Illustrator 25.2.3, SVG Export Plug-In . SVG Version: 6.00 Build 0)  -->
<svg version="1.1" xmlns="http://www.w3.org/2000/svg" xmlns:xlink="http://www.w3.org/1999/xlink" x="0px" y="0px"
	 viewBox="0 0 32 32" style="enable-background:new 0 0 32 32;" xml:space="preserve">
<style type="text/css">
	.st0{fill:#191919;}
	.st1{fill:#FFFFFF;}
	.st2{display:none;}
	.st3{display:inline;fill:#191919;}
	.st4{display:inline;fill:#FFFFFF;}
	.st5{display:inline;}
	.st6{fill:#B0BEC5;}
	.st7{fill:#CFD8DC;}
</style>
<g id="Calque_1">
	<g>
		<path class="st0" d="M16,1.9C8.2,1.9,1.9,8.2,1.9,16S8.2,30.1,16,30.1S30.1,23.8,30.1,16S23.8,1.9,16,1.9z"/>
		<path class="st1" d="M24.5,11.1c-0.6,0.3-1.4,0.5-2.1,0.6c0.7-0.4,1.9-1.3,2.1-2.1c-0.7,0.4-1.9,0.8-2.7,1c-0.6-0.7-1.5-1-2.5-1
			c-1.9,0-3.3,1.6-3.3,3.5v1.4c-2.8,0-5.6-2.1-7.3-4.2c-0.3,0.5-0.5,1.1-0.5,1.7c0,1.3,1.2,2.6,2.1,3.2c-0.6,0-1.6-0.5-2.1-0.7
			c0,0,0,0,0,0c0,1.7,1.2,2.8,2.8,3.1c-0.3,0.1-0.6,0.4-2,0.4c0.4,1.4,2.7,2.1,4.2,2.1c-1.2,0.9-3.3,1.4-4.9,1.4c-0.3,0-0.4,0-0.7,0
			c1.5,1,3.7,1.4,5.6,1.4c6.4,0,9.9-4.9,9.9-9.4c0-0.1,0-0.7,0-0.8C23.7,12.3,24,11.8,24.5,11.1"/>
	</g>
</g>
<g id="Calque_3" class="st2">
	<path class="st3" d="M16,1.9C8.2,1.9,1.9,8.2,1.9,16S8.2,30.1,16,30.1S30.1,23.8,30.1,16S23.8,1.9,16,1.9z"/>
	<polygon class="st4" points="21.6,16 12.4,21.1 12.4,10.9 21.6,16 21.6,16 	"/>
</g>
<g id="Calque_2" class="st2">
	<g class="st5">
		<path class="st0" d="M16,1.9C8.2,1.9,1.9,8.2,1.9,16S8.2,30.1,16,30.1S30.1,23.8,30.1,16S23.8,1.9,16,1.9z"/>
		<path class="st1" d="M23,9.6l-2.6,13.5c0,0-0.1,0.6-0.9,0.6c-0.4,0-0.6-0.2-0.6-0.2l-5.7-4.8l-2.8-1.4l-3.6-1c0,0-0.6-0.2-0.6-0.7
			c0-0.4,0.7-0.7,0.7-0.7l15-6c0,0,0.5-0.2,0.8-0.2c0.2,0,0.4,0.1,0.4,0.4C23.1,9.5,23,9.6,23,9.6z"/>
		<path class="st6" d="M15.3,20.6L12.9,23c0,0-0.1,0.1-0.2,0.1c0,0-0.1,0-0.2,0l0.7-4.2L15.3,20.6z"/>
		<path class="st7" d="M20.2,11.9c-0.1-0.2-0.3-0.2-0.5-0.1l-9.3,5.6c0,0,1.5,4.2,1.7,4.9c0.2,0.7,0.4,0.7,0.4,0.7l0.7-4.2l6.9-6.4
			C20.2,12.3,20.3,12.1,20.2,11.9z"/>
	</g>
</g>
</svg>
