<?xml version="1.0" encoding="utf-8"?>
<!-- Generator: Adobe Illustrator 27.7.0, SVG Export Plug-In . SVG Version: 6.00 Build 0)  -->
<svg version="1.1" xmlns="http://www.w3.org/2000/svg" xmlns:xlink="http://www.w3.org/1999/xlink" x="0px" y="0px"
	 viewBox="0 0 45 45" style="enable-background:new 0 0 45 45;" xml:space="preserve">
<style type="text/css">
	.st0{display:none;}
	.st1{display:inline;fill:url(#SVGID_1_);stroke:#A4D6FF;stroke-width:0.5;stroke-miterlimit:10;}
	.st2{fill:url(#XMLID_00000073718937140066415830000016666500320994526882_);}
	
		.st3{display:inline;fill:url(#SVGID_00000028285131013299743320000003800771990946945158_);stroke:#A4D6FF;stroke-width:0.5;stroke-miterlimit:10;}
	.st4{display:inline;}
	.st5{fill:url(#SVGID_00000024711965517476757880000016677778136419603624_);}
	.st6{fill:url(#Path_1_00000182486812880700611520000006493375734391848599_);}
	.st7{fill:url(#Path_2_00000019644456809496441940000013996708926604980103_);}
	.st8{display:inline;fill:url(#SVGID_00000074411748652058673040000014344522365454729383_);}
</style>
<g id="Calque_1">
	<g id="Calque_2_00000022550505225863643360000017889037178823198125_" class="st0">
		
			<linearGradient id="SVGID_1_" gradientUnits="userSpaceOnUse" x1="11.3333" y1="23.5618" x2="29.6515" y2="23.5618" gradientTransform="matrix(1 0 0 -1 0 46)">
			<stop  offset="0" style="stop-color:#56ADFF"/>
			<stop  offset="1" style="stop-color:#702CA4"/>
		</linearGradient>
		<path class="st1" d="M12.5,21.5c0,0,8.1-3.3,10.9-4.5c1.1-0.5,4.7-2,4.7-2s1.7-0.7,1.5,0.9c0,0.7-0.4,3-0.8,5.4
			c-0.6,3.5-1.2,7.4-1.2,7.4s-0.1,1.1-0.9,1.3c-0.8,0.2-2.1-0.7-2.3-0.8c-0.2-0.1-3.5-2.2-4.7-3.3c-0.3-0.3-0.7-0.8,0-1.5
			c1.7-1.5,3.7-3.5,4.9-4.7c0.6-0.6,1.1-1.9-1.2-0.3c-3.3,2.3-6.6,4.5-6.6,4.5s-0.7,0.5-2.2,0c-1.4-0.4-3-1-3-1S10.5,22.3,12.5,21.5
			L12.5,21.5z"/>
	</g>
	<g id="Calque_4">
		<g id="XMLID_826_">
			<g>
				
					<linearGradient id="XMLID_00000032616467991876517870000000205822886518209933_" gradientUnits="userSpaceOnUse" x1="9.2211" y1="23.55" x2="36.6319" y2="23.55" gradientTransform="matrix(1 0 0 -1 0 46)">
					<stop  offset="0" style="stop-color:#3CD6C7"/>
					<stop  offset="1" style="stop-color:#80FFD1"/>
				</linearGradient>
				
					<path id="XMLID_00000146495341186154797030000017099836164296228767_" style="fill:url(#XMLID_00000032616467991876517870000000205822886518209933_);" d="
					M36.1,13.9c-0.4,0.1-0.9,0.3-1.3,0.4c0.6-0.6,1-1.3,1.2-2.2c0-0.1,0-0.4-0.1-0.4c-0.1,0-0.4,0-0.6,0c-1,0.6-2,1-3,1.2
					c-1.2-1-2.6-1.7-4.2-1.7c-3.2,0-5.9,2.6-5.9,5.9c0,0.3,0,0.6,0,0.7c-4-0.3-7.8-2.3-10.4-5.5c-0.1-0.1-0.3-0.1-0.4-0.1
					S11,12.3,11,12.4c-0.6,0.9-0.9,1.9-0.9,3c0,1.4,0.6,2.7,1.4,3.8c-0.3-0.1-0.6-0.1-0.7-0.3c0,0-0.1,0-0.3,0
					c-0.1,0.1-0.3,0.3-0.3,0.4c0,0,0,0,0,0.1c0,2.2,1.2,4,2.9,5c-0.1,0-0.3,0-0.4,0s-0.3,0-0.4,0.1s-0.1,0.3-0.1,0.4
					c0.6,2,2.3,3.5,4.3,3.9c-1.7,1-3.6,1.6-5.6,1.6c-0.4,0-0.9,0-1.3-0.1c-0.1,0-0.4,0.1-0.4,0.3s0,0.4,0.1,0.6
					c2.6,1.6,5.5,2.5,8.5,2.5c6.1,0,9.8-2.9,11.8-5.2c2.6-2.9,4-6.9,4-10.7c0-0.1,0-0.3,0-0.4c1-0.7,1.9-1.7,2.6-2.7
					c0.1-0.1,0.1-0.4,0-0.6C36.3,13.9,36.2,13.9,36.1,13.9z"/>
			</g>
		</g>
	</g>
	<g id="Calque_3" class="st0">
		
			<linearGradient id="SVGID_00000129166448929457772880000018173082995843336864_" gradientUnits="userSpaceOnUse" x1="16.1667" y1="23.5446" x2="30.8333" y2="23.5446" gradientTransform="matrix(1 0 0 -1 0 46)">
			<stop  offset="0" style="stop-color:#56ADFF"/>
			<stop  offset="1" style="stop-color:#702CA4"/>
		</linearGradient>
		
			<path style="display:inline;fill:url(#SVGID_00000129166448929457772880000018173082995843336864_);stroke:#A4D6FF;stroke-width:0.5;stroke-miterlimit:10;" d="
			M18.5,15.3L29.9,21c1.2,0.6,1.2,2.3,0,2.9l-11.4,5.7c-1.1,0.5-2.4-0.2-2.4-1.5V16.8C16.2,15.6,17.4,14.8,18.5,15.3z"/>
	</g>
</g>
<g id="Calque_4_00000088100575768874458300000014321690140050073230_" class="st0">
	<g id="Calque_2_00000008117445565017080270000018226149983726886033_" class="st4">
		
			<linearGradient id="SVGID_00000146481749799282783320000013495271108410304166_" gradientUnits="userSpaceOnUse" x1="6.8166" y1="23.567" x2="33.2437" y2="23.567" gradientTransform="matrix(1 0 0 -1 0 46)">
			<stop  offset="0" style="stop-color:#3CD6C7"/>
			<stop  offset="1" style="stop-color:#80FFD1"/>
		</linearGradient>
		<path style="fill:url(#SVGID_00000146481749799282783320000013495271108410304166_);" d="M8.5,21.1c0,0,11.7-4.8,15.7-6.5
			c1.6-0.7,6.8-2.9,6.8-2.9s2.5-1,2.2,1.3c0,1-0.6,4.3-1.2,7.8c-0.9,5-1.7,10.7-1.7,10.7s-0.1,1.6-1.3,1.9c-1.2,0.3-3-1-3.3-1.2
			c-0.3-0.1-5-3.2-6.8-4.8c-0.4-0.4-1-1.2,0-2.2c2.5-2.2,5.3-5,7.1-6.8c0.9-0.9,1.6-2.7-1.7-0.4c-4.8,3.3-9.5,6.5-9.5,6.5
			s-1,0.7-3.2,0c-2-0.6-4.3-1.4-4.3-1.4S5.6,22.2,8.5,21.1L8.5,21.1z"/>
	</g>
</g>
<g id="Calque_3_00000139257620175249224730000015361037948037003940_" class="st0">
	<g id="Layer_x0020_1" class="st4">
		<g id="circle">
			<g id="Group_3">
				
					<linearGradient id="Path_1_00000044150258901078930660000013655847470576829571_" gradientUnits="userSpaceOnUse" x1="8.6927" y1="19.4758" x2="35.6517" y2="19.4758">
					<stop  offset="0" style="stop-color:#3CD6C7"/>
					<stop  offset="1" style="stop-color:#80FFD1"/>
				</linearGradient>
				<path id="Path_1" style="fill:url(#Path_1_00000044150258901078930660000013655847470576829571_);" d="M14.4,21.8
					c0-0.6,0.5-1.2,1.2-1.2l0,0h2c0.6,0,1.2,0.5,1.2,1.2l0,0v7.4c0.2-0.1,0.5-0.1,0.8-0.2c0.4-0.1,0.8-0.5,0.8-1v-9.2
					c0-0.6,0.5-1.2,1.2-1.2h2c0.6,0,1.2,0.5,1.2,1.2v8.5c0,0,0.5-0.2,1-0.4c0.4-0.2,0.6-0.5,0.6-0.9V15.9c0-0.6,0.5-1.2,1.2-1.2h2
					c0.6,0,1.2,0.5,1.2,1.2v8.4c1.7-1.2,3.4-2.7,4.8-4.5c0.4-0.5,0.5-1.2,0.3-1.8C33,10.8,25.2,7,18,9.5S7,19.8,9.5,27
					c0.3,0.8,0.6,1.6,1.1,2.3c0.3,0.6,1,0.9,1.7,0.9c0.4,0,0.8-0.1,1.4-0.1c0.5,0,0.9-0.5,0.9-1L14.4,21.8L14.4,21.8z"/>
				
					<linearGradient id="Path_2_00000008849912186281555130000010428845643789991053_" gradientUnits="userSpaceOnUse" x1="14.3956" y1="28.9191" x2="36.3073" y2="28.9191">
					<stop  offset="0" style="stop-color:#3CD6C7"/>
					<stop  offset="1" style="stop-color:#80FFD1"/>
				</linearGradient>
				<path id="Path_2" style="fill:url(#Path_2_00000008849912186281555130000010428845643789991053_);" d="M14.4,33.7
					c6.2,4.5,14.8,3.1,19.3-3.1c1.7-2.4,2.6-5.2,2.6-8.1c0-0.3,0-0.6,0-1C31.2,29.1,21.9,32.6,14.4,33.7L14.4,33.7z"/>
			</g>
		</g>
	</g>
</g>
<g id="Calque_2" class="st0">
	
		<linearGradient id="SVGID_00000120555014341615703140000014491334662713534881_" gradientUnits="userSpaceOnUse" x1="5.8134" y1="22.5" x2="39.1866" y2="22.5">
		<stop  offset="0" style="stop-color:#3CD6C7"/>
		<stop  offset="1" style="stop-color:#80FFD1"/>
	</linearGradient>
	<path style="display:inline;fill:url(#SVGID_00000120555014341615703140000014491334662713534881_);" d="M20.8,30.5
		c0.5,0,1,0.4,1,1c0,0.5-0.4,1-1,1c-0.5,0-1-0.4-1-1S20.3,30.5,20.8,30.5L20.8,30.5 M36.2,24.5c-0.5,0-1-0.4-1-1c0-0.5,0.4-1,1-1
		c0.5,0,1,0.4,1,1C37.1,24,36.7,24.5,36.2,24.5 M36.2,20.5c-1.7,0-3,1.4-3,3c0,0.3,0.1,0.6,0.2,1l-10,5.3c-0.6-0.8-1.5-1.3-2.5-1.3
		c-1.2,0-2.2,0.7-2.7,1.7l-9-4.7c-0.9-0.5-1.7-2.1-1.6-3.5c0-0.7,0.3-1.3,0.7-1.5c0.2-0.1,0.5-0.1,0.9,0l0.1,0
		c2.4,1.3,10.2,5.3,10.5,5.5c0.5,0.2,0.8,0.3,1.6-0.1l16.1-8.4c0.2-0.1,0.5-0.3,0.5-0.7c0-0.5-0.5-0.7-0.5-0.7
		c-0.9-0.4-2.3-1.1-3.7-1.7c-2.9-1.4-6.3-2.9-7.7-3.7c-1.3-0.7-2.3-0.1-2.5,0L23.2,11c-6.6,3.2-15.4,7.6-15.9,7.9
		c-0.9,0.5-1.4,1.6-1.5,3c-0.1,2.1,1,4.4,2.5,5.2l9.5,4.9c0.2,1.5,1.5,2.6,3,2.6c1.6,0,3-1.3,3-3l10.4-5.7c0.5,0.4,1.2,0.6,1.9,0.6
		c1.7,0,3-1.4,3-3C39.2,21.8,37.8,20.5,36.2,20.5"/>
</g>
</svg>
