<?xml version="1.0" encoding="utf-8"?>
<!-- Generator: Adobe Illustrator 27.7.0, SVG Export Plug-In . SVG Version: 6.00 Build 0)  -->
<svg version="1.1" id="Calque_1" xmlns="http://www.w3.org/2000/svg" xmlns:xlink="http://www.w3.org/1999/xlink" x="0px" y="0px"
	 viewBox="0 0 45 45" style="enable-background:new 0 0 45 45;" xml:space="preserve">
<style type="text/css">
	.st0{display:none;}
	.st1{display:inline;}
	.st2{fill:url(#SVGID_1_);}
	.st3{fill:url(#Path_1_00000047748308938242705060000007074777303710150549_);}
	.st4{fill:url(#Path_2_00000058553975934662550630000014813888408512067727_);}
	.st5{display:inline;fill:url(#SVGID_00000093889854318836662580000016055139195142150803_);}
	.st6{fill:url(#SVGID_00000077310662555963090670000006938927532843624836_);}
</style>
<g id="Calque_4_00000088100575768874458300000014321690140050073230_" class="st0">
	<g id="Calque_2_00000008117445565017080270000018226149983726886033_" class="st1">
		
			<linearGradient id="SVGID_1_" gradientUnits="userSpaceOnUse" x1="6.8049" y1="1.4642" x2="33.225" y2="1.4642" gradientTransform="matrix(1 0 0 1 0 21)">
			<stop  offset="0" style="stop-color:#3CD6C7"/>
			<stop  offset="1" style="stop-color:#80FFD1"/>
		</linearGradient>
		<path class="st2" d="M8.5,21.1c0,0,11.7-4.8,15.7-6.5c1.6-0.7,6.8-2.9,6.8-2.9s2.5-1,2.2,1.3c0,1-0.6,4.3-1.2,7.8
			c-0.9,5-1.7,10.7-1.7,10.7s-0.1,1.6-1.3,1.9c-1.2,0.3-3-1-3.3-1.2c-0.3-0.1-5-3.2-6.8-4.8c-0.4-0.4-1-1.2,0-2.2
			c2.5-2.2,5.3-5,7.1-6.8c0.9-0.9,1.6-2.7-1.7-0.4c-4.8,3.3-9.5,6.5-9.5,6.5s-1,0.7-3.2,0c-2-0.6-4.3-1.4-4.3-1.4S5.6,22.2,8.5,21.1
			L8.5,21.1z"/>
	</g>
</g>
<g id="Calque_3_00000139257620175249224730000015361037948037003940_" class="st0">
	<g id="Layer_x0020_1" class="st1">
		<g id="circle">
			<g id="Group_3">
				
					<linearGradient id="Path_1_00000080895311973478199240000016959116346019069114_" gradientUnits="userSpaceOnUse" x1="8.6927" y1="25.5342" x2="35.6517" y2="25.5342" gradientTransform="matrix(1 0 0 -1 0 45)">
					<stop  offset="0" style="stop-color:#3CD6C7"/>
					<stop  offset="1" style="stop-color:#80FFD1"/>
				</linearGradient>
				<path id="Path_1" style="fill:url(#Path_1_00000080895311973478199240000016959116346019069114_);" d="M14.4,21.8
					c0-0.6,0.5-1.2,1.2-1.2l0,0h2c0.6,0,1.2,0.5,1.2,1.2l0,0v7.4c0.2-0.1,0.5-0.1,0.8-0.2c0.4-0.1,0.8-0.5,0.8-1v-9.2
					c0-0.6,0.5-1.2,1.2-1.2h2c0.6,0,1.2,0.5,1.2,1.2v8.5c0,0,0.5-0.2,1-0.4c0.4-0.2,0.6-0.5,0.6-0.9V15.9c0-0.6,0.5-1.2,1.2-1.2h2
					c0.6,0,1.2,0.5,1.2,1.2v8.4c1.7-1.2,3.4-2.7,4.8-4.5c0.4-0.5,0.5-1.2,0.3-1.8C33,10.8,25.2,7,18,9.5S7,19.8,9.5,27
					c0.3,0.8,0.6,1.6,1.1,2.3c0.3,0.6,1,0.9,1.7,0.9c0.4,0,0.8-0.1,1.4-0.1c0.5,0,0.9-0.5,0.9-1L14.4,21.8L14.4,21.8z"/>
				
					<linearGradient id="Path_2_00000053543630663578806090000014272572351064671873_" gradientUnits="userSpaceOnUse" x1="14.4" y1="16.0807" x2="36.3" y2="16.0807" gradientTransform="matrix(1 0 0 -1 0 45)">
					<stop  offset="0" style="stop-color:#3CD6C7"/>
					<stop  offset="1" style="stop-color:#80FFD1"/>
				</linearGradient>
				<path id="Path_2" style="fill:url(#Path_2_00000053543630663578806090000014272572351064671873_);" d="M14.4,33.7
					c6.2,4.5,14.8,3.1,19.3-3.1c1.7-2.4,2.6-5.2,2.6-8.1c0-0.3,0-0.6,0-1C31.2,29.1,21.9,32.6,14.4,33.7L14.4,33.7z"/>
			</g>
		</g>
	</g>
</g>
<g id="Calque_2_00000121271646805968263140000004141335245828589998_" class="st0">
	
		<linearGradient id="SVGID_00000056428359571892734270000000366318504298160023_" gradientUnits="userSpaceOnUse" x1="5.7937" y1="22.5173" x2="39.1669" y2="22.5173" gradientTransform="matrix(1 0 0 -1 0 45)">
		<stop  offset="0" style="stop-color:#3CD6C7"/>
		<stop  offset="1" style="stop-color:#80FFD1"/>
	</linearGradient>
	<path style="display:inline;fill:url(#SVGID_00000056428359571892734270000000366318504298160023_);" d="M20.8,30.5
		c0.5,0,1,0.4,1,1c0,0.5-0.4,1-1,1c-0.5,0-1-0.4-1-1S20.3,30.5,20.8,30.5L20.8,30.5 M36.2,24.5c-0.5,0-1-0.4-1-1c0-0.5,0.4-1,1-1
		c0.5,0,1,0.4,1,1C37.1,24,36.7,24.5,36.2,24.5 M36.2,20.5c-1.7,0-3,1.4-3,3c0,0.3,0.1,0.6,0.2,1l-10,5.3c-0.6-0.8-1.5-1.3-2.5-1.3
		c-1.2,0-2.2,0.7-2.7,1.7l-9-4.7C8.3,25,7.5,23.4,7.6,22c0-0.7,0.3-1.3,0.7-1.5c0.2-0.1,0.5-0.1,0.9,0h0.1
		c2.4,1.3,10.2,5.3,10.5,5.5c0.5,0.2,0.8,0.3,1.6-0.1l16.1-8.4c0.2-0.1,0.5-0.3,0.5-0.7c0-0.5-0.5-0.7-0.5-0.7
		c-0.9-0.4-2.3-1.1-3.7-1.7c-2.9-1.4-6.3-2.9-7.7-3.7c-1.3-0.7-2.3-0.1-2.5,0L23.2,11c-6.6,3.2-15.4,7.6-15.9,7.9
		c-0.9,0.5-1.4,1.6-1.5,3c-0.1,2.1,1,4.4,2.5,5.2l9.5,4.9c0.2,1.5,1.5,2.6,3,2.6c1.6,0,3-1.3,3-3l10.4-5.7c0.5,0.4,1.2,0.6,1.9,0.6
		c1.7,0,3-1.4,3-3C39.2,21.8,37.8,20.5,36.2,20.5"/>
</g>
<linearGradient id="SVGID_00000072264506165415695220000006062554415187365272_" gradientUnits="userSpaceOnUse" x1="7.1" y1="22.5" x2="37.9" y2="22.5">
	<stop  offset="0" style="stop-color:#3CD6C7"/>
	<stop  offset="1" style="stop-color:#80FFD1"/>
</linearGradient>
<path style="fill:url(#SVGID_00000072264506165415695220000006062554415187365272_);" d="M22.5,37.9c-2.2,0-4.2-0.4-6-1.2
	c-1.9-0.8-3.5-1.9-4.9-3.3s-2.5-3-3.3-4.9c-0.8-1.9-1.2-3.9-1.2-6.1s0.4-4.2,1.2-6s1.9-3.5,3.3-4.9s3-2.5,4.9-3.3s3.9-1.2,6-1.2
	s4.2,0.4,6,1.2c1.9,0.8,3.5,1.9,4.9,3.3c1.4,1.4,2.5,3,3.3,4.9c0.8,1.9,1.2,3.9,1.2,6s-0.4,4.2-1.2,6.1c-0.8,1.9-1.9,3.5-3.3,4.9
	c-1.4,1.4-3,2.5-4.9,3.3C26.7,37.5,24.7,37.9,22.5,37.9z M22.5,35.7c0.9-0.9,1.6-2,2.3-3.2c0.6-1.2,1.1-2.6,1.5-4.3h-7.4
	c0.4,1.5,0.8,2.9,1.4,4.2C20.9,33.6,21.6,34.7,22.5,35.7z M19.2,35.2c-0.6-1-1.2-2-1.7-3.2s-0.8-2.4-1.2-3.8h-5.8
	c1,1.8,2.1,3.3,3.4,4.3C15.3,33.6,17,34.5,19.2,35.2z M25.8,35.2c1.8-0.6,3.5-1.5,5-2.7c1.5-1.2,2.7-2.6,3.6-4.3h-5.7
	c-0.3,1.4-0.7,2.6-1.2,3.8C27,33.1,26.5,34.2,25.8,35.2z M9.9,25.9H16c-0.1-0.7-0.1-1.3-0.1-1.9c0-0.6,0-1.1,0-1.6
	c0-0.6,0-1.2,0-1.7c0-0.5,0.1-1.1,0.2-1.7H9.9c-0.2,0.6-0.3,1.2-0.4,1.7c-0.1,0.5-0.1,1.1-0.1,1.7s0,1.3,0.1,1.8
	C9.6,24.7,9.7,25.3,9.9,25.9z M18.4,25.9h8.3c0.1-0.8,0.2-1.4,0.2-1.9s0-1,0-1.6c0-0.5,0-1,0-1.5c0-0.5-0.1-1.1-0.2-1.9h-8.3
	c-0.1,0.8-0.2,1.4-0.2,1.9c0,0.5,0,1,0,1.5c0,0.5,0,1.1,0,1.6C18.2,24.5,18.3,25.1,18.4,25.9z M29,25.9h6.2c0.2-0.6,0.3-1.2,0.4-1.7
	c0.1-0.5,0.1-1.1,0.1-1.8s0-1.2-0.1-1.7s-0.2-1-0.4-1.7H29c0.1,0.9,0.1,1.6,0.2,2.1c0,0.5,0,0.9,0,1.3c0,0.6,0,1.1-0.1,1.6
	S29,25.2,29,25.9z M28.6,16.7h5.8c-0.8-1.8-2-3.2-3.5-4.4c-1.5-1.2-3.2-2-5.1-2.5c0.6,0.9,1.2,2,1.6,3.1S28.2,15.3,28.6,16.7z
	 M18.8,16.7h7.5c-0.3-1.4-0.8-2.7-1.4-3.9c-0.7-1.3-1.5-2.4-2.3-3.4c-0.8,0.7-1.5,1.6-2.1,2.7S19.3,14.8,18.8,16.7z M10.6,16.7h5.8
	c0.3-1.4,0.6-2.6,1.1-3.7c0.4-1.1,1-2.1,1.7-3.2c-1.9,0.5-3.6,1.3-5,2.5S11.5,14.9,10.6,16.7z"/>
</svg>
