<?xml version="1.0" encoding="utf-8"?>
<!-- Generator: Adobe Illustrator 27.7.0, SVG Export Plug-In . SVG Version: 6.00 Build 0)  -->
<svg version="1.1" id="Calque_1" xmlns="http://www.w3.org/2000/svg" xmlns:xlink="http://www.w3.org/1999/xlink" x="0px" y="0px"
	 viewBox="0 0 147.5 149.3" style="enable-background:new 0 0 147.5 149.3;" xml:space="preserve">
<style type="text/css">
	.st0{fill:#220C3D;}
	.st1{fill:#D900FF;}
</style>
<path class="st0" d="M73.7,0C46.5,0,22.6,14.6,9.6,36.4c-0.4,7.3-1,15.1,1.5,15.9c3.7,1.2,9-15.7,19.3-16c5.1-0.1,9.7,3.8,10.7,4.7
	c5.7,4.9,4.7,9.8,8.7,11.3c4.5,1.8,12.3-2.2,14.7-8c3.8-9.5-8.8-19.8-5.3-24c2.4-2.9,11.6-1.8,15.3,3.3c5.1,7-4.2,15.9,0.7,26.7
	c2.6,5.7,8.7,10.9,13.3,10c6.7-1.4,5.6-14.5,14-17.3c4.8-1.6,11.5,0.7,13.3,4.7c2.7,5.8-6.7,11.4-4.7,19.3
	c1.7,6.7,10.8,12.1,15.3,10c6.2-2.9,1.3-18.3,7.3-21.3c3.9-1.9,8.6,3.1,13.7,7.3C141.8,27.3,111,0,73.7,0z"/>
<path class="st0" d="M73.7,149.3c27.3,0,51.1-14.6,64.1-36.4c0.4-7.3,1-15.1-1.5-15.9c-3.7-1.2-9,15.7-19.3,16
	c-5.1,0.1-9.7-3.8-10.7-4.7c-5.7-4.9-4.7-9.8-8.7-11.3c-4.5-1.8-12.3,2.2-14.7,8c-3.8,9.5,8.8,19.8,5.3,24
	c-2.4,2.9-11.6,1.8-15.3-3.3c-5.1-7,4.2-15.9-0.7-26.7C69.8,93.3,63.7,88,59,89c-6.7,1.4-5.6,14.5-14,17.3
	c-4.8,1.6-11.5-0.7-13.3-4.7c-2.7-5.8,6.7-11.4,4.7-19.3c-1.7-6.7-10.8-12.1-15.3-10c-6.2,2.9-1.3,18.3-7.3,21.3
	C9.8,95.6,5.1,90.5,0,86.4C5.6,122,36.5,149.3,73.7,149.3z"/>
<g id="Calque_3_00000071530049045082898940000007224235790507480240_">
	<g>
		<path class="st1" d="M59,48.1l42.1,21c4.4,2.2,4.4,8.5,0,10.7l-42.1,21c-4.1,1.8-8.9-0.7-8.9-5.5V53.6
			C50.5,49.2,54.9,46.2,59,48.1z"/>
	</g>
</g>
</svg>
