<?xml version="1.0" encoding="utf-8"?>
<!-- Generator: Adobe Illustrator 25.2.3, SVG Export Plug-In . SVG Version: 6.00 Build 0)  -->
<svg version="1.1" id="Calque_1" xmlns="http://www.w3.org/2000/svg" xmlns:xlink="http://www.w3.org/1999/xlink" x="0px" y="0px" viewBox="0 0 142.8 19.4" style="enable-background: new 0 0 142.8 19.4" xml:space="preserve">
<style>.st0 {
  fill: #fff;
}

</style>
<g>
	<path class="st0" d="M3.8,19H0V0.3h3.8v9.4l7-9.4H15L9.1,8.2L15,19h-4.3l-4.1-7.6l-2.9,3.8V19z"></path>
	<path class="st0" d="M31.5,11.5c0,1-0.2,2-0.6,2.9c-0.4,0.9-0.9,1.7-1.6,2.4c-0.7,0.7-1.5,1.2-2.4,1.6C26,18.8,25.1,19,24,19
		c-1,0-2-0.2-2.9-0.6c-0.9-0.4-1.7-0.9-2.4-1.6c-0.7-0.7-1.2-1.5-1.6-2.4c-0.4-0.9-0.6-1.9-0.6-2.9V0.3h3.7v11.3
		c0,0.5,0.1,1,0.3,1.5c0.2,0.5,0.5,0.9,0.8,1.2c0.3,0.3,0.7,0.6,1.2,0.8c0.5,0.2,0.9,0.3,1.5,0.3c0.5,0,1-0.1,1.5-0.3
		c0.5-0.2,0.9-0.5,1.2-0.8c0.3-0.3,0.6-0.7,0.8-1.2c0.2-0.5,0.3-0.9,0.3-1.5V0.3h3.8V11.5z"></path>
	<path class="st0" d="M33.7,5.9c0-0.8,0.1-1.5,0.4-2.2c0.3-0.7,0.7-1.3,1.2-1.8c0.5-0.5,1.1-0.9,1.8-1.2c0.7-0.3,1.4-0.4,2.2-0.4
		h8.6V4h-8.6c-0.3,0-0.5,0-0.7,0.1c-0.2,0.1-0.4,0.2-0.6,0.4c-0.2,0.2-0.3,0.4-0.4,0.6c-0.1,0.2-0.1,0.5-0.1,0.7s0,0.5,0.1,0.7
		c0.1,0.2,0.2,0.4,0.4,0.6c0.2,0.2,0.4,0.3,0.6,0.4c0.2,0.1,0.5,0.1,0.7,0.1h3.8c0.8,0,1.5,0.1,2.2,0.4c0.7,0.3,1.3,0.7,1.8,1.2
		c0.5,0.5,0.9,1.1,1.2,1.8c0.3,0.7,0.4,1.4,0.4,2.2c0,0.8-0.1,1.5-0.4,2.2c-0.3,0.7-0.7,1.3-1.2,1.8c-0.5,0.5-1.1,0.9-1.8,1.2
		c-0.7,0.3-1.4,0.4-2.2,0.4h-8.3v-3.8h8.3c0.3,0,0.5,0,0.7-0.1c0.2-0.1,0.4-0.2,0.6-0.4c0.2-0.2,0.3-0.4,0.4-0.6
		c0.1-0.2,0.1-0.5,0.1-0.7c0-0.3,0-0.5-0.1-0.7c-0.1-0.2-0.2-0.4-0.4-0.6c-0.2-0.2-0.4-0.3-0.6-0.4c-0.2-0.1-0.5-0.1-0.7-0.1h-3.8
		c-0.8,0-1.5-0.1-2.2-0.4c-0.7-0.3-1.3-0.7-1.8-1.2c-0.5-0.5-0.9-1.1-1.2-1.8C33.8,7.4,33.7,6.7,33.7,5.9z"></path>
	<path class="st0" d="M54.9,19h-3.8V0.3h3.8v7.5h7.5V0.3h3.8V19h-3.8v-7.5h-7.5V19z"></path>
	<path class="st0" d="M84.6,19h-4L73.4,6.7V19h-3.8V0.3h4l7.2,12.4V0.3h3.8V19z"></path>
	<path class="st0" d="M91.8,2.5c0,0.4,0,0.8-0.1,1.2c-0.1,0.4-0.2,0.9-0.4,1.3c-0.2,0.4-0.4,0.8-0.6,1.2c-0.3,0.4-0.6,0.7-0.9,1
		l-1.4-1c0.2-0.3,0.4-0.5,0.5-0.8c0.1-0.3,0.2-0.5,0.3-0.8c-0.3,0-0.5-0.1-0.7-0.3c-0.2-0.1-0.4-0.3-0.6-0.5
		c-0.2-0.2-0.3-0.4-0.4-0.7c-0.1-0.3-0.1-0.5-0.1-0.8c0-0.3,0.1-0.6,0.2-0.9c0.1-0.3,0.3-0.5,0.5-0.7c0.2-0.2,0.4-0.4,0.7-0.5
		c0.3-0.1,0.6-0.2,0.9-0.2c0.3,0,0.6,0.1,0.9,0.2c0.3,0.1,0.5,0.3,0.7,0.5c0.2,0.2,0.4,0.4,0.5,0.7C91.8,1.9,91.8,2.2,91.8,2.5z"></path>
	<path class="st0" d="M109.7,17.1c-0.9,0.7-1.8,1.3-2.9,1.7c-1.1,0.4-2.2,0.6-3.4,0.6c-0.9,0-1.7-0.1-2.6-0.3
		c-0.8-0.2-1.6-0.6-2.3-1c-0.7-0.4-1.4-0.9-2-1.5c-0.6-0.6-1.1-1.2-1.5-2c-0.4-0.7-0.7-1.5-1-2.3c-0.2-0.8-0.3-1.7-0.3-2.6
		c0-0.9,0.1-1.7,0.3-2.6c0.2-0.8,0.6-1.6,1-2.3c0.4-0.7,0.9-1.4,1.5-2c0.6-0.6,1.2-1.1,2-1.5c0.7-0.4,1.5-0.7,2.3-1
		c0.8-0.2,1.7-0.3,2.6-0.3c1.2,0,2.3,0.2,3.4,0.6c1.1,0.4,2.1,1,2.9,1.7l-2,3.3c-0.5-0.6-1.2-1-1.9-1.4c-0.7-0.3-1.5-0.5-2.4-0.5
		c-0.8,0-1.6,0.2-2.3,0.5c-0.7,0.3-1.4,0.7-1.9,1.3c-0.5,0.5-1,1.2-1.3,1.9c-0.3,0.7-0.5,1.5-0.5,2.3c0,0.8,0.2,1.6,0.5,2.3
		c0.3,0.7,0.7,1.3,1.3,1.9c0.5,0.5,1.2,1,1.9,1.3c0.7,0.3,1.5,0.5,2.3,0.5c0.8,0,1.6-0.2,2.4-0.5c0.7-0.3,1.4-0.8,1.9-1.4
		L109.7,17.1z"></path>
	<path class="st0" d="M126.6,19h-3.8v-3.8h-7.5V19h-3.7V7.8c0-1,0.2-2,0.6-2.9c0.4-0.9,0.9-1.7,1.6-2.4c0.7-0.7,1.5-1.2,2.4-1.6
		c0.9-0.4,1.9-0.6,2.9-0.6c1,0,2,0.2,2.9,0.6c0.9,0.4,1.7,0.9,2.4,1.6c0.7,0.7,1.2,1.5,1.6,2.4c0.4,0.9,0.6,1.9,0.6,2.9V19z
		 M122.9,11.5V7.8c0-0.5-0.1-1-0.3-1.5c-0.2-0.5-0.5-0.9-0.8-1.2c-0.3-0.3-0.7-0.6-1.2-0.8c-0.5-0.2-0.9-0.3-1.5-0.3
		c-0.5,0-1,0.1-1.5,0.3c-0.5,0.2-0.9,0.5-1.2,0.8c-0.3,0.3-0.6,0.7-0.8,1.2c-0.2,0.5-0.3,0.9-0.3,1.5v3.8H122.9z"></path>
	<path class="st0" d="M137.2,19h-3.7V4h-5.6V0.3h15V4h-5.6V19z"></path>
</g>
</svg>
